<?xml version="1.0" encoding="UTF-8"?>
<svg version="1.1" xmlns="http://www.w3.org/2000/svg" width="512" height="646">
<path d="M0 0 C0 0.66 0 1.32 0 2 C0.66 2 1.32 2 2 2 C3.49877503 3.65483608 4.92488473 5.37590512 6.3125 7.125 C7.11171875 8.12660156 7.9109375 9.12820313 8.734375 10.16015625 C9.48203125 11.09730469 10.2296875 12.03445313 11 13 C12.0164283 14.19127262 13.03611371 15.37979626 14.0625 16.5625 C16 19 16 19 16 21 C16.66 21 17.32 21 18 21 C19.37491299 22.50787161 20.67364462 24.08539761 21.9375 25.6875 C22.74316406 26.69425781 23.54882812 27.70101563 24.37890625 28.73828125 C24.80703613 29.27404785 25.23516602 29.80981445 25.67626953 30.36181641 C27.86493025 33.07039505 30.11959897 35.72196581 32.375 38.375 C32.8277832 38.90996094 33.28056641 39.44492187 33.74707031 39.99609375 C36.19911222 42.89098511 38.66480756 45.77331249 41.14453125 48.64453125 C41.65387207 49.23766113 42.16321289 49.83079102 42.68798828 50.44189453 C43.67055569 51.5857169 44.65707789 52.72615655 45.64794922 53.86279297 C49 57.77495191 49 57.77495191 49 60 C49.66 60 50.32 60 51 60 C52.68006635 61.98608936 54.25284663 63.98451871 55.8125 66.0625 C59.92230965 71.42261212 64.17173062 76.60916447 68.625 81.6875 C73.10889133 86.80755282 77.48895056 91.98794988 81.7734375 97.27734375 C84.22855802 100.27948235 86.73502941 103.23561035 89.25 106.1875 C93.96843488 111.73203573 98.56550593 117.3683344 103.14111328 123.03100586 C107.18689812 128.02742306 111.30486813 132.9564744 115.48632812 137.83984375 C122 145.46414171 122 145.46414171 122 148 C122.66 148 123.32 148 124 148 C125.76657349 150.06855187 127.4232 152.14630207 129.0625 154.3125 C130.06551668 155.61396731 131.06943273 156.91474196 132.07421875 158.21484375 C132.57228027 158.86179199 133.0703418 159.50874023 133.58349609 160.17529297 C135.47309781 162.60943347 137.41701762 164.99563366 139.375 167.375 C143.15474156 171.97198298 146.92735721 176.57447538 150.6875 181.1875 C151.48969971 182.16759033 151.48969971 182.16759033 152.30810547 183.16748047 C155.04834519 186.53154216 157.74928075 189.92391275 160.39453125 193.36328125 C160.8944458 194.01208252 161.39436035 194.66088379 161.90942383 195.3293457 C163 197 163 197 163 199 C163.66 199 164.32 199 165 199 C166.4033221 200.65132299 167.72105082 202.37558023 169 204.125 C169.58189087 204.91849854 169.58189087 204.91849854 170.17553711 205.72802734 C171.01202809 206.87231372 171.8451452 208.01907226 172.67529297 209.16796875 C174.04762976 211.06587057 175.43169778 212.95486074 176.81640625 214.84375 C177.73254606 216.1036033 178.64792749 217.36400848 179.5625 218.625 C180.00400391 219.22844238 180.44550781 219.83188477 180.90039062 220.45361328 C184 224.7691664 184 224.7691664 184 227 C184.66 227 185.32 227 186 227 C187.12573242 228.38598633 187.12573242 228.38598633 188.35546875 230.33203125 C188.80954102 231.04254639 189.26361328 231.75306152 189.73144531 232.48510742 C190.21194336 233.25314697 190.69244141 234.02118652 191.1875 234.8125 C191.68217773 235.59278564 192.17685547 236.37307129 192.68652344 237.17700195 C193.67744069 238.74045994 194.66592306 240.30546405 195.65185547 241.87207031 C196.76064298 243.62219562 197.89453235 245.35639262 199.03515625 247.0859375 C203.27272966 253.51469352 206.73739225 260.22551382 210.08642578 267.14648438 C210.99697662 268.99386597 211.94289852 270.81821506 212.90234375 272.640625 C221.58573386 289.25420986 228.30024633 306.8560492 233 325 C233.17869629 325.67659668 233.35739258 326.35319336 233.54150391 327.05029297 C246.56524539 376.94522307 243.30504762 433.37543376 223 481 C222.39091797 482.51013672 222.39091797 482.51013672 221.76953125 484.05078125 C213.31165145 504.59134649 201.78139446 523.02043812 188.9375 541.0625 C188.37699951 541.855354 187.81649902 542.64820801 187.23901367 543.46508789 C186.7154126 544.18946045 186.19181152 544.91383301 185.65234375 545.66015625 C184.95612915 546.62900757 184.95612915 546.62900757 184.24584961 547.61743164 C183.83471924 548.0736792 183.42358887 548.52992676 183 549 C182.34 549 181.68 549 181 549 C180.731875 549.58265625 180.46375 550.1653125 180.1875 550.765625 C178.98519009 553.02786601 177.66174087 554.80576318 176 556.75 C175.484375 557.36359375 174.96875 557.9771875 174.4375 558.609375 C173 560 173 560 171 560 C170.7628125 560.56203125 170.525625 561.1240625 170.28125 561.703125 C168.71052303 564.51894042 166.78528536 566.47955416 164.5 568.75 C163.7059375 569.54921875 162.911875 570.3484375 162.09375 571.171875 C160 573 160 573 158 573 C157.67 573.99 157.34 574.98 157 576 C156.34 576 155.68 576 155 576 C155 576.66 155 577.32 155 578 C153.3828125 579.4453125 153.3828125 579.4453125 151.125 581.125 C147.8441661 583.59324346 144.6510304 586.1187272 141.5 588.75 C88.87848937 630.91257684 20.03347862 646.74234444 -46.19921875 640.05249023 C-70.29713992 637.20350891 -92.80123315 630.44326975 -115.25 621.4375 C-116.36874512 620.99067871 -117.48749023 620.54385742 -118.64013672 620.08349609 C-125.50331091 617.25966642 -131.72248061 613.94114396 -138 610 C-139.82463855 608.98422184 -141.65606758 607.9803185 -143.5 607 C-147.25730127 604.96323183 -150.99210096 602.8973969 -154.6875 600.75 C-155.51636719 600.27046875 -156.34523438 599.7909375 -157.19921875 599.296875 C-157.79347656 598.86890625 -158.38773437 598.4409375 -159 598 C-159 597.34 -159 596.68 -159 596 C-159.70125 595.7525 -160.4025 595.505 -161.125 595.25 C-164.39514548 593.82819762 -167.141122 592.12753712 -170 590 C-170 589.34 -170 588.68 -170 588 C-170.6909375 587.79117188 -171.381875 587.58234375 -172.09375 587.3671875 C-175.91155026 585.57117931 -178.48981421 583.03740714 -181.5 580.125 C-182.61310274 579.06354936 -183.72766338 578.00362523 -184.84375 576.9453125 C-185.37355469 576.44032227 -185.90335937 575.93533203 -186.44921875 575.41503906 C-187.87130291 574.11743204 -189.38598816 572.92325113 -190.90625 571.7421875 C-191.5971875 571.16726563 -192.288125 570.59234375 -193 570 C-193 569.34 -193 568.68 -193 568 C-193.99 567.67 -194.98 567.34 -196 567 C-196 566.34 -196 565.68 -196 565 C-196.639375 564.731875 -197.27875 564.46375 -197.9375 564.1875 C-200 563 -200 563 -201 560 C-201.66 560 -202.32 560 -203 560 C-204.7421875 558.12109375 -204.7421875 558.12109375 -206.875 555.4375 C-208.07576172 553.93123047 -208.07576172 553.93123047 -209.30078125 552.39453125 C-209.73471191 551.84619629 -210.16864258 551.29786133 -210.61572266 550.73291016 C-212.05203521 548.93485962 -213.51323609 547.15960517 -214.98046875 545.38671875 C-232 524.6950357 -232 524.6950357 -232 519 C-232.66 519 -233.32 519 -234 519 C-234.4125 518.16339844 -234.825 517.32679688 -235.25 516.46484375 C-235.8275 515.30082031 -236.405 514.13679687 -237 512.9375 C-237.31396729 512.30408691 -237.62793457 511.67067383 -237.95141602 511.01806641 C-239.56394742 507.78823162 -241.20752453 504.58728357 -242.96484375 501.43359375 C-254.35730573 480.96621235 -261.09524339 459.06572418 -265.75 436.1875 C-265.94875732 435.21079346 -266.14751465 434.23408691 -266.35229492 433.2277832 C-269.39627911 417.54337087 -270.37447322 402.37650303 -270.3125 386.4375 C-270.31067719 385.46511383 -270.30885437 384.49272766 -270.30697632 383.49087524 C-270.26162523 369.12314755 -269.76931488 355.13549897 -267 341 C-266.83371094 340.08702148 -266.66742188 339.17404297 -266.49609375 338.23339844 C-262.06840475 314.16808877 -254.17331632 290.39439555 -242.8125 268.6875 C-242.49152344 268.07060303 -242.17054688 267.45370605 -241.83984375 266.81811523 C-239.12711453 261.81371833 -237.05940494 258.72268109 -231.59375 256.8046875 C-230.23381614 256.47498613 -228.86866251 256.16635207 -227.5 255.875 C-226.37513184 255.6279834 -226.37513184 255.6279834 -225.22753906 255.37597656 C-199.50620826 250.01957572 -160.3919954 245.8040023 -136 258 C-136.03480469 257.32839844 -136.06960937 256.65679687 -136.10546875 255.96484375 C-136.86261933 228.02238178 -129.32181171 199.43315191 -121 173 C-120.74605469 172.18450684 -120.49210938 171.36901367 -120.23046875 170.52880859 C-114.86470521 153.41647045 -108.28133294 136.91043679 -100 121 C-99.0612835 119.0630891 -98.12376591 117.12559666 -97.1875 115.1875 C-90.72853148 102.28674107 -82.97642281 90.00906158 -75 78 C-74.59297852 77.38479492 -74.18595703 76.76958984 -73.76660156 76.13574219 C-72.54117978 74.2923808 -71.30440201 72.4572897 -70.0625 70.625 C-69.33160156 69.54476562 -68.60070312 68.46453125 -67.84765625 67.3515625 C-67.23792969 66.57554688 -66.62820312 65.79953125 -66 65 C-65.34 65 -64.68 65 -64 65 C-63.6596875 63.95199219 -63.6596875 63.95199219 -63.3125 62.8828125 C-61.72075611 59.38666073 -59.50662152 56.73644599 -57 53.875 C-56.51740723 53.31385498 -56.03481445 52.75270996 -55.53759766 52.17456055 C-51.4192821 47.41145821 -47.18194697 42.7591006 -42.8984375 38.14453125 C-40.96645215 36.14790788 -40.96645215 36.14790788 -40 34 C-39.34 34 -38.68 34 -38 34 C-37.67 33.01 -37.34 32.02 -37 31 C-36.34 31 -35.68 31 -35 31 C-35 30.34 -35 29.68 -35 29 C-33.625 27.375 -33.625 27.375 -32 26 C-31.34 26 -30.68 26 -30 26 C-30 25.34 -30 24.68 -30 24 C-28.625 22.375 -28.625 22.375 -27 21 C-26.34 21 -25.68 21 -25 21 C-25 20.34 -25 19.68 -25 19 C-23.7421875 17.6953125 -23.7421875 17.6953125 -21.875 16.125 C-19.04509428 13.73202766 -16.23116128 11.32839087 -13.45703125 8.87109375 C-12.20066633 7.76806342 -10.94415525 6.66519955 -9.6875 5.5625 C-9.07696777 5.01803223 -8.46643555 4.47356445 -7.83740234 3.91259766 C-3.33934754 0 -3.33934754 0 0 0 Z " fill="#DD2C00" transform="translate(271,3)"/>
<path d="M0 0 C0.69359619 0.06993164 1.38719238 0.13986328 2.10180664 0.21191406 C43.15355205 5.17589725 82.66972665 28.3302468 111.4375 57.1875 C112.20449219 57.9196875 112.97148437 58.651875 113.76171875 59.40625 C140.92430145 85.62599925 157.85626263 122.33428681 164.4375 159.1875 C164.66308594 160.44433594 164.88867188 161.70117188 165.12109375 162.99609375 C169.24021561 191.20497654 167.20936903 221.08756987 158.4375 248.1875 C158.11507324 249.21786377 158.11507324 249.21786377 157.78613281 250.26904297 C153.58118106 263.59729436 148.09885315 277.19810628 140.63671875 289.046875 C139.11166747 291.36017462 139.11166747 291.36017462 139.4375 295.1875 C140.66014497 296.79036458 140.66014497 296.79036458 142.5 298.1875 C143.23605469 298.79335938 143.97210938 299.39921875 144.73046875 300.0234375 C145.62378906 300.73757813 146.51710938 301.45171875 147.4375 302.1875 C148.51760659 303.07469422 149.59698639 303.96277372 150.67578125 304.8515625 C178.95697809 327.98400148 209.81967755 346.83775116 243.4375 361.1875 C244.13343262 361.48624023 244.82936523 361.78498047 245.54638672 362.09277344 C247.17617968 362.792364 248.80674608 363.49015237 250.4375 364.1875 C247.28614044 370.49021913 231.37132887 373.92183188 224.90234375 376.09375 C164.95035004 395.38061148 101.39148451 391.97468716 43.1875 368.625 C42.06875488 368.17817871 40.95000977 367.73135742 39.79736328 367.27099609 C32.93418909 364.44716642 26.71501939 361.12864396 20.4375 357.1875 C18.61286145 356.17172184 16.78143242 355.1678185 14.9375 354.1875 C11.18019873 352.15073183 7.44539904 350.0848969 3.75 347.9375 C2.92113281 347.45796875 2.09226562 346.9784375 1.23828125 346.484375 C0.64402344 346.05640625 0.04976563 345.6284375 -0.5625 345.1875 C-0.5625 344.5275 -0.5625 343.8675 -0.5625 343.1875 C-1.614375 342.81625 -1.614375 342.81625 -2.6875 342.4375 C-5.95764548 341.01569762 -8.703622 339.31503712 -11.5625 337.1875 C-11.5625 336.5275 -11.5625 335.8675 -11.5625 335.1875 C-12.2534375 334.97867187 -12.944375 334.76984375 -13.65625 334.5546875 C-17.47405026 332.75867931 -20.05231421 330.22490714 -23.0625 327.3125 C-24.17560274 326.25104936 -25.29016338 325.19112523 -26.40625 324.1328125 C-26.93605469 323.62782227 -27.46585937 323.12283203 -28.01171875 322.60253906 C-29.43380291 321.30493204 -30.94848816 320.11075113 -32.46875 318.9296875 C-33.1596875 318.35476563 -33.850625 317.77984375 -34.5625 317.1875 C-34.5625 316.5275 -34.5625 315.8675 -34.5625 315.1875 C-35.5525 314.8575 -36.5425 314.5275 -37.5625 314.1875 C-37.5625 313.5275 -37.5625 312.8675 -37.5625 312.1875 C-38.201875 311.919375 -38.84125 311.65125 -39.5 311.375 C-41.5625 310.1875 -41.5625 310.1875 -42.5625 307.1875 C-43.2225 307.1875 -43.8825 307.1875 -44.5625 307.1875 C-46.3046875 305.30859375 -46.3046875 305.30859375 -48.4375 302.625 C-49.23800781 301.62082031 -50.03851563 300.61664062 -50.86328125 299.58203125 C-51.29721191 299.03369629 -51.73114258 298.48536133 -52.17822266 297.92041016 C-53.61453521 296.12235962 -55.07573609 294.34710517 -56.54296875 292.57421875 C-73.5625 271.8825357 -73.5625 271.8825357 -73.5625 266.1875 C-74.2225 266.1875 -74.8825 266.1875 -75.5625 266.1875 C-75.975 265.35089844 -76.3875 264.51429688 -76.8125 263.65234375 C-77.39 262.48832031 -77.9675 261.32429688 -78.5625 260.125 C-78.87646729 259.49158691 -79.19043457 258.85817383 -79.51391602 258.20556641 C-81.12644742 254.97573162 -82.77002453 251.77478357 -84.52734375 248.62109375 C-95.91980573 228.15371235 -102.65774339 206.25322418 -107.3125 183.375 C-107.51125732 182.39829346 -107.71001465 181.42158691 -107.91479492 180.4152832 C-110.95877911 164.73087087 -111.93697322 149.56400303 -111.875 133.625 C-111.87317719 132.65261383 -111.87135437 131.68022766 -111.86947632 130.67837524 C-111.82412523 116.31064755 -111.33181488 102.32299897 -108.5625 88.1875 C-108.31306641 86.81803223 -108.31306641 86.81803223 -108.05859375 85.42089844 C-103.63090475 61.35558877 -95.73581632 37.58189555 -84.375 15.875 C-84.05402344 15.25810303 -83.73304687 14.64120605 -83.40234375 14.00561523 C-80.68961453 9.00121833 -78.62190494 5.91018109 -73.15625 3.9921875 C-71.79631614 3.66248613 -70.43116251 3.35385207 -69.0625 3.0625 C-68.31258789 2.89782227 -67.56267578 2.73314453 -66.79003906 2.56347656 C-45.07256543 -1.95913135 -22.01264722 -2.23386086 0 0 Z " fill="#FEC300" transform="translate(112.5625,255.8125)"/>
<path d="M0 0 C6.9157697 0.83412476 12.78900261 2.9282333 19.25 5.4375 C20.97839111 6.10857788 20.97839111 6.10857788 22.74169922 6.79321289 C44.657761 15.48385508 63.33369711 27.5014945 81 43 C82.29051446 44.06389917 83.58195049 45.12668333 84.875 46.1875 C87.9545987 48.83580355 90.5721336 51.79136764 93.1953125 54.88671875 C94.39202116 56.28805941 95.61617453 57.66644818 96.8671875 59.01953125 C120.7070749 84.82214031 135.86306617 118.63477079 142 153 C142.22558594 154.25683594 142.45117188 155.51367188 142.68359375 156.80859375 C146.80271561 185.01747654 144.77186903 214.90006987 136 242 C135.78504883 242.68690918 135.57009766 243.37381836 135.34863281 244.08154297 C131.14368106 257.40979436 125.66135315 271.01060628 118.19921875 282.859375 C116.67416747 285.17267462 116.67416747 285.17267462 117 289 C118.22264497 290.60286458 118.22264497 290.60286458 120.0625 292 C120.79855469 292.60585938 121.53460938 293.21171875 122.29296875 293.8359375 C123.18628906 294.55007813 124.07960938 295.26421875 125 296 C126.08010659 296.88719422 127.15948639 297.77527372 128.23828125 298.6640625 C156.51947809 321.79650148 187.38217755 340.65025116 221 355 C221.69593262 355.29874023 222.39186523 355.59748047 223.10888672 355.90527344 C224.73867968 356.604864 226.36924608 357.30265237 228 358 C224.84864044 364.30271913 208.93382887 367.73433188 202.46484375 369.90625 C147.02855867 387.74038504 79.57610766 388.98438958 26 364 C27.53968952 360.92062096 30.53673067 360.26271515 33.5625 358.9375 C46.67740868 352.98236585 58.77654019 346.08995071 70 337 C70.51095215 336.59056152 71.0219043 336.18112305 71.54833984 335.75927734 C88.26666071 322.29930737 102.25300654 306.98582731 114 289 C112.55993075 285.68354684 110.77544802 283.56282576 108.18359375 281.05859375 C107.42353027 280.31536865 106.6634668 279.57214355 105.88037109 278.80639648 C105.07422363 278.02466064 104.26807617 277.2429248 103.4375 276.4375 C97.54557326 270.64236175 91.95707196 264.88303181 86.8671875 258.3671875 C85.0011147 256.00141319 83.03309875 253.78546011 81 251.5625 C39.46199177 204.99449859 15.32316824 143.5160545 4.125 82.9375 C3.97298126 82.1260553 3.82096252 81.3146106 3.66433716 80.47857666 C0.04324956 60.93269368 -0.144925 41.70987666 -0.0625 21.875 C-0.05746901 19.74088648 -0.05290896 17.6067718 -0.04882812 15.47265625 C-0.0379629 10.31507467 -0.02078884 5.15755073 0 0 Z " fill="#FE9000" transform="translate(135,262)"/>
</svg>
