<?xml version="1.0" encoding="UTF-8"?>
<svg version="1.1" xmlns="http://www.w3.org/2000/svg" width="320" height="320">
<path d="M0 0 C4.04067913 2.02033956 6.64064734 4.36582044 9.75799561 7.51748657 C10.32902708 8.0868092 10.90005856 8.65613183 11.48839402 9.24270666 C13.40167094 11.15268786 15.30770932 13.06973231 17.21386719 14.98681641 C18.58346834 16.35698165 19.95350994 17.72670675 21.32395935 19.09602356 C25.04503791 22.81652755 28.75991135 26.54317238 32.4737196 30.27093172 C36.35523074 34.16493267 40.24239416 38.05328277 44.12896729 41.94223022 C51.48874414 49.30822699 58.84340725 56.67930786 66.19625688 64.05221879 C74.56709737 72.44540237 82.94360744 80.83291779 91.32060385 89.21995664 C108.5533952 106.47366157 125.77903721 123.73448951 143 141 C147.04177385 139.38631872 149.74520842 136.52269851 152.74453735 133.48251343 C153.3141577 132.9131908 153.88377805 132.34386817 154.47065961 131.75729334 C156.37926557 129.84729777 158.28062669 127.93024948 160.18212891 126.01318359 C161.54847008 124.64300447 162.91526704 123.27327972 164.28248596 121.90397644 C167.22587155 118.95426666 170.16612053 116.00147751 173.10402298 113.04630661 C177.74531729 108.37800695 182.39419527 103.7173101 187.04428101 99.05776978 C196.91043583 89.16940287 206.76812907 79.27261995 216.625 69.375 C227.27211419 58.68389227 237.92063858 47.99421319 248.57892358 37.3142401 C253.20587465 32.67729449 257.82789843 28.03550815 262.44627786 23.39002585 C265.31346053 20.50797948 268.18473122 17.63003325 271.05715752 14.75321388 C272.39328595 13.41332491 273.7276763 12.07170024 275.06023979 10.72826576 C276.87209765 8.90208793 278.68992239 7.0820706 280.50942993 5.26351929 C281.04171758 4.72404171 281.57400523 4.18456414 282.12242281 3.62873876 C285.77181409 0 285.77181409 0 288 0 C288 95.04 288 190.08 288 288 C284.80875665 286.40437832 283.33691557 285.58630247 280.97540283 283.21591187 C280.40615585 282.64941422 279.83690887 282.08291656 279.25041199 281.49925232 C278.63829361 280.87994339 278.02617523 280.26063446 277.39550781 279.62255859 C276.74143448 278.96877731 276.08736115 278.31499603 275.41346741 277.6414032 C273.25524486 275.48178862 271.10419064 273.3151788 268.953125 271.1484375 C267.45712191 269.64870384 265.96067631 268.14941147 264.46380615 266.65054321 C260.52699775 262.70610188 256.59623266 258.75569106 252.66668701 254.80401611 C248.65511502 250.77197847 244.63786906 246.74560286 240.62109375 242.71875 C232.74182555 234.81803787 224.86892875 226.9110091 217 219 C214.19411401 220.27765173 212.16459371 221.59234596 210.00904846 223.79081726 C209.44702728 224.35876007 208.8850061 224.92670288 208.30595398 225.51185608 C207.70169083 226.13273605 207.09742767 226.75361603 206.47485352 227.39331055 C205.82881165 228.04869812 205.18276978 228.70408569 204.51715088 229.3793335 C203.11659382 230.80087393 201.71821902 232.22456697 200.32177925 233.65015221 C198.11246968 235.90348282 195.89532007 238.14880393 193.67552185 240.39179993 C187.36558917 246.76896229 181.06395007 253.1541355 174.78295898 259.55981445 C170.93972536 263.47819952 167.08213102 267.3819363 163.21482658 271.27655983 C161.7424426 272.76508574 160.27563973 274.25915327 158.81451607 275.75873375 C156.77469296 277.8513135 154.71716977 279.92480493 152.65454102 281.99487305 C152.05230209 282.62182571 151.45006317 283.24877838 150.82957458 283.89472961 C146.770081 287.91571783 146.770081 287.91571783 143.50970459 288.27255249 C139.74734705 286.36483894 137.12108363 283.64340227 134.19018555 280.64428711 C133.52621262 279.98089828 132.86223969 279.31750946 132.17814636 278.63401794 C129.98805482 276.44114196 127.81246776 274.23444333 125.63671875 272.02734375 C124.12016206 270.50332602 122.60271923 268.98018961 121.08442688 267.457901 C117.0922012 263.45040852 113.11213346 259.43104895 109.13446045 255.40911865 C105.07281225 251.30654092 100.99980611 247.21527411 96.92773438 243.12304688 C88.94065169 235.09307475 80.96636456 227.05052285 73 219 C70.19665468 220.27803451 68.15459863 221.59863227 65.98886108 223.78408813 C65.42250443 224.35058578 64.85614777 224.91708344 64.27262878 225.50074768 C63.6636525 226.12005661 63.05467621 226.73936554 62.42724609 227.37744141 C61.77638535 228.03122269 61.1255246 228.68500397 60.4549408 229.3585968 C59.0444269 230.77671415 57.63622811 232.19713712 56.23008347 233.61958694 C54.00758607 235.86759588 51.77891318 238.1093108 49.54849243 240.34945679 C44.81838886 245.10241834 40.09616054 249.86315733 35.375 254.625 C29.89831369 260.14880235 24.41849223 265.66941442 18.93019485 271.18168259 C16.72909839 273.39579422 14.53408452 275.61581988 12.33920288 277.83609009 C10.99775149 279.18480238 9.65602085 280.533237 8.31396484 281.88134766 C7.70094009 282.50470505 7.08791534 283.12806244 6.45631409 283.77030945 C5.00833606 285.21865157 3.50895736 286.61530402 2 288 C1.34 288 0.68 288 0 288 C0 192.96 0 97.92 0 0 Z " fill="#58519C" transform="translate(16,16)"/>
<path d="M0 0 C4.05515372 2.02757686 6.66671168 4.39200524 9.79595947 7.55545044 C10.3710745 8.12885662 10.94618953 8.7022628 11.53873229 9.29304492 C13.46582859 11.21684534 15.38568669 13.14770997 17.30566406 15.07861328 C18.68511731 16.45863062 20.06501099 17.83820781 21.4453125 19.21737671 C25.19324962 22.96473924 28.93498172 26.71824298 32.67564869 30.47286081 C36.58518719 34.39488887 40.50037772 38.3112663 44.41497803 42.22824097 C51.82787875 49.64736167 59.23566581 57.07156659 66.64163947 64.49760139 C75.07293844 72.95124321 83.50990677 81.39921707 91.94736147 89.84671426 C109.30456681 107.22483334 126.65462291 124.61007552 144 142 C142.81281068 145.31595632 141.68962368 147.68483836 139.18708801 150.16694641 C138.61387817 150.74283508 138.04066833 151.31872375 137.4500885 151.9120636 C136.82307541 152.52671982 136.19606232 153.14137604 135.55004883 153.7746582 C134.55698227 154.76597244 134.55698227 154.76597244 133.54385376 155.77731323 C131.35513425 157.95885034 129.15609049 160.12967158 126.95703125 162.30078125 C125.4289349 163.82073637 123.90157632 165.34143354 122.37492371 166.86283875 C118.35132754 170.8693135 114.31925826 174.86714654 110.28491211 178.86279297 C103.84362912 185.24492327 97.41483611 191.63962656 90.98682213 198.0351162 C88.74794385 200.26012215 86.50523902 202.48121187 84.26191711 204.70173645 C82.87349735 206.08012105 81.48516192 207.45859062 80.09692383 208.8371582 C79.48003189 209.44574173 78.86313995 210.05432526 78.22755432 210.68135071 C74.55275079 214.33762836 71.1080973 218.13005404 67.71873951 222.05136395 C65.04869106 225.07855489 62.21655809 227.93097454 59.36206055 230.78320312 C58.74002243 231.40859985 58.11798431 232.03399658 57.47709656 232.67834473 C55.44957284 234.71525919 53.41840215 236.74848509 51.38671875 238.78125 C49.96654625 240.20463948 48.54644755 241.62810258 47.12641907 243.05163574 C44.16539443 246.01861897 41.20233991 248.98355779 38.23803711 251.94726562 C34.43191558 255.75328482 30.63276098 259.56617914 26.83526897 263.38080597 C23.9125584 266.3145963 20.98535358 269.24386974 18.05683327 272.17185974 C16.65293735 273.57693849 15.25066907 274.98364542 13.85004234 276.39198303 C11.90170118 278.35005802 9.94720401 280.30177128 7.9909668 282.25195312 C7.4107074 282.83783203 6.830448 283.42371094 6.23260498 284.02734375 C2.22832631 288 2.22832631 288 0 288 C0 192.96 0 97.92 0 0 Z " fill="#BA4A95" transform="translate(16,16)"/>
<path d="M0 0 C0 47.19 0 94.38 0 143 C-3.18476326 141.40761837 -4.69079456 140.56119633 -7.06929016 138.2048645 C-7.64839645 137.63573334 -8.22750275 137.06660217 -8.82415771 136.48022461 C-9.44719788 135.85784912 -10.07023804 135.23547363 -10.7121582 134.59423828 C-11.3775914 133.9371286 -12.0430246 133.28001892 -12.72862244 132.60299683 C-14.92481922 130.43088261 -17.11329282 128.25119439 -19.30078125 126.0703125 C-20.82195914 124.55809861 -22.3432157 123.04596385 -23.86454773 121.53390503 C-27.04990714 118.36503088 -30.23084991 115.19179278 -33.40942383 112.01611328 C-37.49132411 107.93961193 -41.58915195 103.87952971 -45.69108295 99.82319832 C-48.836654 96.70729676 -51.97098403 93.58027436 -55.10225487 90.45000839 C-56.60892717 88.94755452 -58.11973944 87.44924078 -59.63466835 85.95511246 C-61.74666549 83.86983242 -63.84243715 81.76949092 -65.93481445 79.66455078 C-66.56797577 79.04622375 -67.20113708 78.42789673 -67.85348511 77.79083252 C-69.56562805 76.04910278 -69.56562805 76.04910278 -72 73 C-71.71466339 69.78934285 -70.50984389 68.13487978 -68.2736969 65.8994751 C-67.69463593 65.31339981 -67.11557495 64.72732452 -66.51896667 64.12348938 C-65.88050308 63.49266953 -65.24203949 62.86184967 -64.58422852 62.21191406 C-63.91429871 61.53833359 -63.2443689 60.86475311 -62.55413818 60.17076111 C-60.33640123 57.94491375 -58.10798222 55.73011245 -55.87890625 53.515625 C-54.33761868 51.97485589 -52.79684874 50.43356882 -51.25657654 48.89178467 C-48.02723054 45.66252841 -44.79277424 42.43850723 -41.55444336 39.21826172 C-37.39495803 35.0814919 -33.24666605 30.93371066 -29.10189915 26.78219986 C-25.92223778 23.59920458 -22.73762405 20.42120349 -19.55137444 17.24480438 C-18.01936087 15.71665095 -16.48870668 14.1871335 -14.95941353 12.65625763 C-12.82621965 10.52269474 -10.68667417 8.39572091 -8.54516602 6.27050781 C-7.90872665 5.63159103 -7.27228729 4.99267426 -6.61656189 4.33439636 C-2.22874072 0 -2.22874072 0 0 0 Z " fill="#5270B3" transform="translate(304,161)"/>
</svg>
