<?xml version="1.0" encoding="UTF-8"?>
<svg version="1.1" xmlns="http://www.w3.org/2000/svg" width="489" height="511">
<path d="M0 0 C1.03642389 -0.08118608 2.07284779 -0.16237215 3.14067847 -0.24601841 C6.62934036 -0.51136878 10.1192263 -0.74654377 13.61026001 -0.97848511 C15.44497807 -1.10794041 15.44497807 -1.10794041 17.31676114 -1.24001098 C50.48100933 -3.57718897 83.69242134 -4.94137586 116.92424268 -5.83876383 C119.30200586 -5.90361421 121.67968357 -5.97107519 124.05736017 -6.03901958 C265.8615807 -10.04058031 265.8615807 -10.04058031 312.72354126 32.94439697 C320.354487 40.1624239 327.21160493 47.9849181 333.87051392 56.09622192 C334.68189017 57.07874577 334.68189017 57.07874577 335.50965786 58.08111858 C373.06921841 103.72330996 373.06921841 103.72330996 373.05326843 117.59979248 C373.05533043 118.97963066 373.05533043 118.97963066 373.05743408 120.38734436 C373.05383881 121.39938431 373.05024353 122.41142426 373.04653931 123.45413208 C373.04668533 124.51756332 373.04683136 125.58099457 373.04698181 126.676651 C373.0462831 130.2045493 373.03849262 133.73239531 373.03067017 137.26028442 C373.02880584 139.70123262 373.02738201 142.14218118 373.02638245 144.58312988 C373.02255843 151.01770047 373.01272911 157.45224861 373.00167847 163.8868103 C372.99146187 170.44879859 372.98688429 177.01079049 372.98184204 183.57278442 C372.97110676 196.45560652 372.95422306 209.33841303 372.93301392 222.22122192 C373.76200447 222.21122917 373.76200447 222.21122917 374.60774231 222.20103455 C380.36657893 222.1345971 386.12530643 222.0893865 391.88442993 222.056427 C394.03291243 222.04135278 396.18136421 222.02089003 398.32974243 221.99490356 C401.420233 221.95846079 404.51031622 221.94148174 407.60098267 221.92825317 C408.55949631 221.91276932 409.51800995 221.89728546 410.50556946 221.8813324 C415.48136228 221.88008042 418.89062195 221.96455027 422.93301392 225.22122192 C423.93301392 226.22122192 423.93301392 226.22122192 424.05606174 228.9211359 C424.05513995 230.13698085 424.05421816 231.35282579 424.05326843 232.60551453 C424.05455007 233.61747537 424.05455007 233.61747537 424.0558576 234.64987987 C424.0575143 236.92702354 424.05198795 239.20409473 424.04653931 241.48123169 C424.04625745 243.10697427 424.04641514 244.73271697 424.04698181 246.35845947 C424.04726985 250.78595606 424.04137218 255.21342579 424.03440785 259.64091611 C424.02817528 264.26273034 424.02757059 268.88454513 424.02638245 273.50636292 C424.02326884 282.26470429 424.01505507 291.02303325 424.00503296 299.78136915 C423.99387271 309.74976205 423.98836159 319.71815553 423.98333752 329.68655312 C423.97287248 350.19811633 423.95527248 370.70966835 423.93301392 391.22122192 C423.27301392 391.22122192 422.61301392 391.22122192 421.93301392 391.22122192 C421.53795654 392.51165405 421.53795654 392.51165405 421.13491821 393.82815552 C419.91660797 397.26753715 418.43099292 400.2991651 416.70254517 403.51028442 C416.3890361 404.09482391 416.07552704 404.6793634 415.7525177 405.28161621 C415.0899008 406.51480364 414.42501033 407.74677186 413.75796509 408.97756958 C412.76094653 410.81773839 411.77117151 412.66164793 410.78262329 414.50637817 C407.1540561 421.25401751 403.40914849 427.91975379 399.48867798 434.50344849 C397.83066833 437.40002153 396.33757116 440.34893514 394.87051392 443.34622192 C392.60691587 447.96348159 390.12048822 452.34789142 387.43301392 456.72903442 C385.3880364 460.12667935 383.50265189 463.60251818 381.62051392 467.09231567 C379.93301392 470.22122192 379.93301392 470.22122192 378.43154907 472.52859497 C373.73132534 480.14607882 373.15329742 486.32537724 373.30801392 495.15872192 C373.33352479 497.54271282 373.3420888 499.92696202 373.33145142 502.31106567 C373.34869263 503.35125854 373.36593384 504.39145142 373.38369751 505.46316528 C372.79941631 509.03880165 371.7638124 510.00131793 368.93301392 512.22122192 C366.01822621 512.72261858 366.01822621 512.72261858 362.55142307 512.72458649 C361.91010043 512.73040025 361.26877778 512.73621401 360.60802111 512.74220395 C358.45006839 512.75685047 356.29324489 512.74289852 354.13529968 512.72915649 C352.57623045 512.73376362 351.01716556 512.74011527 349.4581098 512.74806547 C345.16688771 512.76480816 340.87602013 512.75649014 336.58479655 512.7441206 C331.95961801 512.73509247 327.33450163 512.74902874 322.70933533 512.76004028 C313.645594 512.77785449 304.58198495 512.7739725 295.51823837 512.76238972 C288.15328084 512.75336651 280.78836045 512.75212657 273.42339897 512.75648499 C272.376298 512.75709792 271.32919702 512.75771085 270.25036572 512.75834236 C268.1233745 512.75962122 265.99638329 512.76091808 263.86939209 512.76223272 C243.91026843 512.77364716 223.95121817 512.76051156 203.99210655 512.73903126 C186.85787027 512.72116211 169.72374238 512.72426121 152.58950806 512.7427063 C132.70473124 512.76410226 112.82001882 512.77254569 92.9352321 512.76025724 C90.81563629 512.75898301 88.69604046 512.75772553 86.57644463 512.75648499 C85.01201937 512.75555933 85.01201937 512.75555933 83.41598957 512.75461498 C76.05846468 512.75115806 68.70098056 512.75699784 61.34346199 512.7664032 C52.37901823 512.77761052 43.4147146 512.77460994 34.45028693 512.75328022 C29.87448415 512.74275233 25.29891518 512.73867748 20.72311401 512.75187683 C16.53657448 512.76377084 12.35048612 512.75728794 8.16398769 512.73596662 C6.64720919 512.73148778 5.13039279 512.73379552 3.61363853 512.74346977 C1.55536194 512.75559383 -0.50135936 512.74320239 -2.5595541 512.72458649 C-3.70376149 512.72393708 -4.84796887 512.72328767 -6.02684921 512.72261858 C-9.74579727 512.10926852 -11.42911275 510.87076455 -14.06698608 508.22122192 C-14.55184937 505.59011841 -14.55184937 505.59011841 -14.38729858 502.59231567 C-14.35918091 501.48380249 -14.33106323 500.37528931 -14.30209351 499.23318481 C-14.26575806 498.05361206 -14.22942261 496.87403931 -14.19198608 495.65872192 C-14.19633023 482.61151892 -17.35300044 474.67435096 -24.75448608 464.15774536 C-26.53435029 461.53165108 -27.90087499 458.7738654 -29.25448608 455.90872192 C-31.96582108 450.31415173 -35.03061202 444.95238585 -38.13729858 439.57278442 C-41.70825531 433.37059643 -45.10002018 427.07923627 -48.41464233 420.73684692 C-48.83713257 419.92884644 -49.2596228 419.12084595 -49.69491577 418.2883606 C-50.56471819 416.62480671 -51.43386391 414.9609093 -52.30233765 413.29666138 C-55.31166962 407.56348349 -58.48864081 401.98425205 -61.88729858 396.47122192 C-63.06698608 394.22122192 -63.06698608 394.22122192 -63.06698608 391.22122192 C-63.72698608 391.22122192 -64.38698608 391.22122192 -65.06698608 391.22122192 C-65.18371923 369.77704321 -65.27192514 348.33291679 -65.32604694 326.88848495 C-65.35184312 316.93174375 -65.38702063 306.97519981 -65.44418335 297.01858521 C-65.49397507 288.34172666 -65.52626681 279.66501095 -65.53742856 270.98801351 C-65.54395452 266.39231898 -65.55932148 261.79703313 -65.59563637 257.20146942 C-65.62952915 252.87745739 -65.64005277 248.55402306 -65.63252449 244.22989082 C-65.63390206 242.64155757 -65.64387493 241.05320535 -65.66301346 239.4649868 C-65.6878489 237.29803756 -65.68192913 235.13327665 -65.66825867 232.96627808 C-65.67286763 231.75319851 -65.6774766 230.54011894 -65.68222523 229.29027939 C-65.06698608 226.22122192 -65.06698608 226.22122192 -63.18883038 223.82406998 C-58.62571743 221.48123157 -54.57240097 221.72412281 -49.51620483 221.83059692 C-48.50226151 221.83625671 -47.48831818 221.8419165 -46.44364929 221.8477478 C-43.21344273 221.87009194 -39.98435592 221.92028594 -36.75448608 221.97122192 C-34.56114276 221.99128941 -32.367782 222.00953974 -30.17440796 222.02590942 C-24.80488696 222.06995013 -19.43601653 222.13684277 -14.06698608 222.22122192 C-14.07067326 221.10654919 -14.07436043 219.99187645 -14.07815933 218.84342575 C-14.16688132 191.74518595 -14.23265283 164.64696495 -14.27423477 137.54861069 C-14.29487697 124.44414871 -14.32302931 111.33978256 -14.3687439 98.23538208 C-14.40856082 86.81616314 -14.43440683 75.3970136 -14.44334006 63.97772717 C-14.44856351 57.9289499 -14.46087506 51.88037117 -14.48990631 45.83165741 C-14.51699401 40.14195271 -14.52544449 34.45252894 -14.51941681 28.76276588 C-14.52052002 26.67133115 -14.52851321 24.57988732 -14.54380798 22.48850822 C-14.56363174 19.63879011 -14.55895303 16.79014064 -14.54800415 13.94039917 C-14.55965552 13.10771476 -14.57130688 12.27503034 -14.58331132 11.41711307 C-14.54869769 8.09725419 -14.3181257 5.66377958 -12.66610909 2.75259972 C-8.62123335 0.36939859 -4.62517198 0.30179033 0 0 Z M372.93301392 393.22122192 C372.93301392 410.38122192 372.93301392 427.54122192 372.93301392 445.22122192 C376.23301392 441.65455526 376.23301392 441.65455526 375.93301392 438.22122192 C376.59301392 438.22122192 377.25301392 438.22122192 377.93301392 438.22122192 C378.32231079 437.41942505 378.71160767 436.61762817 379.11270142 435.79153442 C383.32595505 427.22911574 387.83342623 418.86693553 392.50332642 410.54544067 C392.89681274 409.84209595 393.29029907 409.13875122 393.69570923 408.41409302 C394.57017045 406.86428822 395.45607561 405.32091416 396.3500061 403.78225708 C396.80794556 402.98481079 397.26588501 402.1873645 397.73770142 401.36575317 C398.15777466 400.64363647 398.5778479 399.92151978 399.01065063 399.17752075 C400.14624398 397.12944139 400.14624398 397.12944139 399.93301392 394.22122192 C391.02301392 393.89122192 382.11301392 393.56122192 372.93301392 393.22122192 Z M-20.85214233 393.43997192 C-22.60687866 393.50764771 -22.60687866 393.50764771 -24.39706421 393.57669067 C-25.62876343 393.62438599 -26.86046265 393.6720813 -28.12948608 393.72122192 C-29.36505249 393.76891724 -30.6006189 393.81661255 -31.87362671 393.86575317 C-34.93808647 393.98407208 -38.00253922 394.10256967 -41.06698608 394.22122192 C-40.13672216 398.42983253 -38.22774942 401.95471265 -36.19198608 405.72122192 C-35.79849976 406.45735718 -35.40501343 407.19349243 -34.99960327 407.95193481 C-31.38073638 414.69817401 -27.68612219 421.4036681 -23.96200562 428.09231567 C-20.83792097 433.72655657 -17.90679675 439.43865365 -15.06698608 445.22122192 C-14.73698608 445.22122192 -14.40698608 445.22122192 -14.06698608 445.22122192 C-14.06698608 428.06122192 -14.06698608 410.90122192 -14.06698608 393.22122192 C-16.32858384 393.22122192 -18.59287337 393.35265718 -20.85214233 393.43997192 Z " fill="#3C3A3D" transform="translate(65.06698608398438,-1.221221923828125)"/>
<path d="M0 0 C150.81 0 301.62 0 457 0 C457 45.54 457 91.08 457 138 C306.19 138 155.38 138 0 138 C0 92.46 0 46.92 0 0 Z " fill="#9CA0A3" transform="translate(16,238)"/>
<path d="M0 0 C81.18 0 162.36 0 246 0 C246.33 33.66 246.66 67.32 247 102 C251.29511108 106.96270405 251.29511108 106.96270405 256.43562317 107.63923645 C257.29232605 107.65452393 258.14902893 107.6698114 259.0316925 107.68556213 C259.95814072 107.67693649 260.88458893 107.66831085 261.83911133 107.65942383 C262.82495209 107.66990753 263.81079285 107.68039124 264.82650757 107.69119263 C268.07866872 107.71994875 271.3297657 107.71365016 274.58203125 107.70703125 C276.83934362 107.72014588 279.09664424 107.73544937 281.35392761 107.75285339 C287.29037655 107.79274332 293.22651878 107.80289648 299.16308594 107.80688477 C306.28845477 107.81784834 313.4136596 107.86569647 320.53890228 107.90737152 C331.35940609 107.96652552 342.17905562 107.97878624 353 108 C353 140.34 353 172.68 353 206 C236.51 206 120.02 206 0 206 C0 138.02 0 70.04 0 0 Z " fill="#E7E8EA" transform="translate(68,16)"/>
<path d="M0 0 C116.49 0 232.98 0 353 0 C353 33.99 353 67.98 353 103 C236.51 103 120.02 103 0 103 C0 69.01 0 35.02 0 0 Z " fill="#E8E9EB" transform="translate(68,392)"/>
<path d="M0 0 C5.45256521 4.08942391 6.17741303 9.67013748 7.38671875 15.984375 C10.40896072 30.84533552 14.86394917 45.42268763 19 60 C19.16081055 59.32122803 19.32162109 58.64245605 19.48730469 57.94311523 C28.33414715 20.66585285 28.33414715 20.66585285 30 19 C30.59010261 15.88410787 31.14484446 12.76851821 31.63085938 9.63476562 C32.4186234 5.2310356 33.35880505 2.68369554 37 0 C40.4375 -0.5625 40.4375 -0.5625 44 0 C48.78321324 3.72587137 50.00933675 7.42042463 51 13.1875 C52.13366848 19.33591632 53.60422327 25.32324898 55.3046875 31.3359375 C58.12686914 41.31793127 60.63987573 51.3671547 63.125 61.4375 C63.98013769 64.89493779 64.83706782 68.35192597 65.6953125 71.80859375 C65.89697525 72.62278275 66.098638 73.43697174 66.30641174 74.27583313 C67.60897698 79.50949426 68.98713715 84.71511001 70.48461914 89.89697266 C71.44098362 93.79944714 71.58571183 97.32872802 70.25390625 101.12890625 C69 103 69 103 66.9765625 103.75 C66.20054687 103.8325 65.42453125 103.915 64.625 104 C63.85414063 104.103125 63.08328125 104.20625 62.2890625 104.3125 C59.01249675 103.86518727 58.00849326 102.57685412 56 100 C54.875 97.36328125 54.875 97.36328125 54 94.3125 C53.66871094 93.1575 53.33742188 92.0025 52.99609375 90.8125 C51.76899841 86.11585273 50.65083731 81.40024189 49.57470703 76.66699219 C48.16607991 70.52400367 46.51084037 64.46625774 44.75024414 58.4152832 C43.19626109 52.99557031 42.03967068 47.54036922 41 42 C39.64843511 47.26106289 38.29755894 52.52230201 36.94726562 57.78369141 C36.48976329 59.56596417 36.03208686 61.34819226 35.57421875 63.13037109 C35.12946907 64.86157874 34.68501031 66.59286115 34.24084473 68.32421875 C33.79897116 70.04580832 33.35618107 71.76716291 32.91247559 73.48828125 C31.87018102 77.54352214 30.84862979 81.60112671 29.88476562 85.67578125 C29.62357941 86.7665094 29.62357941 86.7665094 29.3571167 87.87927246 C28.89271616 89.82878662 28.4376924 91.78052784 27.98339844 93.73242188 C26.55234533 98.48744044 25.15718223 101.22854518 21 104 C19.02734375 104.08203125 19.02734375 104.08203125 16.9375 103.8125 C16.24527344 103.73644531 15.55304688 103.66039062 14.83984375 103.58203125 C13 103 13 103 11 100 C10.30939859 97.43781075 9.69237107 94.9016705 9.125 92.3125 C8.77174602 90.75890678 8.41755895 89.20552546 8.0625 87.65234375 C7.88460937 86.86843262 7.70671875 86.08452148 7.5234375 85.27685547 C4.3428746 71.44200025 0.60192816 57.72919311 -3 44 C-4.64054845 47.00235658 -5.5581988 49.82832318 -6.33203125 53.15625 C-6.57074951 54.16953369 -6.80946777 55.18281738 -7.05541992 56.22680664 C-7.43017456 57.84703735 -7.43017456 57.84703735 -7.8125 59.5 C-8.34572108 61.7592641 -8.87958415 64.01837676 -9.4140625 66.27734375 C-9.81286621 67.97093018 -9.81286621 67.97093018 -10.21972656 69.69873047 C-11.35273682 74.49239904 -12.50964517 79.27966781 -13.6875 84.0625 C-13.87739502 84.85140625 -14.06729004 85.6403125 -14.26293945 86.453125 C-17.43287779 99.2707617 -17.43287779 99.2707617 -20.8125 103 C-23.79632843 104.36403585 -25.75498859 104.47323083 -29 104 C-31.375 102.5625 -31.375 102.5625 -33 100 C-33.82136618 94.58925029 -32.90753458 90.08675889 -31 85 C-30.66795106 83.60868751 -30.35729956 82.21217859 -30.0625 80.8125 C-29.34288144 77.43928799 -28.49971259 74.1317946 -27.5625 70.8125 C-26.03734711 65.34351743 -24.86905698 59.82577952 -23.74609375 54.26171875 C-23 51 -23 51 -22.00390625 48.05859375 C-20.43951144 43.29236365 -19.68596767 38.38771525 -18.78125 33.4609375 C-18.1213702 30.53766997 -17.33325519 28.61231302 -16 26 C-15.65390939 24.1761574 -15.3674303 22.34049127 -15.125 20.5 C-14.13217011 14.18622244 -12.86810752 7.75496085 -10 2 C-6.69707206 -0.2284815 -3.94535923 -0.4931699 0 0 Z " fill="#3A393B" transform="translate(166,255)"/>
<path d="M0 0 C13.02419049 4.4552356 24.49029024 12.69007746 31.19921875 24.8984375 C32.97531224 28.63944506 34.27630592 32.38768637 35.375 36.375 C35.57996094 37.01953125 35.78492188 37.6640625 35.99609375 38.328125 C39.2552663 49.38683463 37.78165788 61.92950693 32.53515625 72.13671875 C29.58299469 77.52052185 26.47994195 82.78157853 22.375 87.375 C21.715 87.375 21.055 87.375 20.375 87.375 C20.375 88.035 20.375 88.695 20.375 89.375 C14.42254856 94.51690486 7.80219828 97.9320042 0.375 100.375 C-0.29144531 100.60058594 -0.95789063 100.82617188 -1.64453125 101.05859375 C-6.96169596 102.62883588 -13.21811618 103.73278248 -18.625 102.375 C-22.05716877 99.13805847 -23.89190984 96.95583612 -24.24645996 92.19444275 C-24.26991541 90.57242371 -24.26612711 88.94986283 -24.24023438 87.32788086 C-24.24578339 86.43770767 -24.2513324 85.54753448 -24.25704956 84.63038635 C-24.26882212 81.69965104 -24.24459684 78.77046998 -24.21875 75.83984375 C-24.21703833 73.7977353 -24.21710515 71.75562464 -24.21887207 69.71351624 C-24.21722024 65.43892323 -24.19854547 61.16485555 -24.16699219 56.89038086 C-24.12729014 51.41363555 -24.12295077 45.93757723 -24.13045502 40.46071529 C-24.13352547 36.24591284 -24.12140185 32.0312646 -24.10432434 27.81649971 C-24.09729812 25.79710419 -24.09416935 23.77769119 -24.09501648 21.75828362 C-24.09321722 18.9361096 -24.07182503 16.11475652 -24.04492188 13.29272461 C-24.04785248 12.45985931 -24.05078308 11.62699402 -24.05380249 10.76889038 C-23.98609687 6.16181395 -23.61004014 3.11880717 -20.625 -0.625 C-14.58330944 -3.64584528 -6.1842916 -1.76798846 0 0 Z " fill="#3B393C" transform="translate(291.625,256.625)"/>
<path d="M0 0 C7.87561134 6.75052401 7.87561134 6.75052401 10.53721619 9.40350342 C11.14424377 10.00626602 11.75127136 10.60902863 12.37669373 11.23005676 C13.01542923 11.86924545 13.65416473 12.50843414 14.31225586 13.16699219 C15.00578156 13.85715927 15.69930725 14.54732635 16.41384888 15.25840759 C18.68347723 17.51860934 20.94938441 19.78249507 23.21484375 22.046875 C24.79660336 23.62541929 26.37843738 25.20388903 27.96034241 26.7822876 C31.26285578 30.07883272 34.56331535 33.37741857 37.86254883 36.67724609 C42.10018109 40.91498055 46.34468352 45.14576212 50.5909338 49.37485886 C53.8532778 52.62612172 57.11110463 55.88188138 60.36764717 59.13895416 C61.93181797 60.7019416 63.49761808 62.2633002 65.06504631 63.82302094 C67.2459474 65.99418872 69.42049769 68.17152263 71.59350586 70.35058594 C72.24641098 70.99787155 72.8993161 71.64515717 73.57200623 72.3120575 C78 76.77167654 78 76.77167654 78 79 C52.26 79 26.52 79 0 79 C0 52.93 0 26.86 0 0 Z " fill="#DEDFE1" transform="translate(330,28)"/>
<path d="M0 0 C8.59529266 3.43811707 16.15767414 6.57981972 22 14 C22.87205078 15.10214844 22.87205078 15.10214844 23.76171875 16.2265625 C29.27947848 24.53535688 29.37545497 34.34752462 28 44 C25.59356061 53.79644802 20.32052817 60.98340128 12.05859375 66.78125 C8.41187526 68.94021806 4.30470597 71 0 71 C0 47.57 0 24.14 0 0 Z " fill="#9B9EA1" transform="translate(284,271)"/>
<path d="M0 0 C3.40150451 1.70075226 4.40900185 5.56042051 6 8.875 C6.70654064 10.33160009 7.41481206 11.78736221 8.125 13.2421875 C8.43695313 13.8904248 8.74890625 14.53866211 9.0703125 15.20654297 C10.08979845 17.25336729 10.08979845 17.25336729 12 20 C12.125 22.6875 12.125 22.6875 12 25 C10.5 23.6875 10.5 23.6875 9 22 C9 21.01 9 20.02 9 19 C8.34 19 7.68 19 7 19 C6.014733 16.77335683 5.03668556 14.54398683 4.0625 12.3125 C3.64581055 11.37374023 3.64581055 11.37374023 3.22070312 10.41601562 C1.7211135 6.96515276 0.56270143 3.72522594 0 0 Z " fill="#6C696B" transform="translate(34,414)"/>
<path d="M0 0 C4.18423892 3.50897269 8.19588166 7.08060535 12 11 C11.67 11.66 11.34 12.32 11 13 C10.01 13.33 9.02 13.66 8 14 C8 13.01 8 12.02 8 11 C7.34 11 6.68 11 6 11 C6 10.34 6 9.68 6 9 C5.01 9.33 4.02 9.66 3 10 C2.566875 9.1028125 2.566875 9.1028125 2.125 8.1875 C0.95257974 5.80672208 0.95257974 5.80672208 -1 3 C-0.67 2.01 -0.34 1.02 0 0 Z " fill="#5A575A" transform="translate(425,99)"/>
<path d="M0 0 C1.32 0.33 2.64 0.66 4 1 C2.37709629 3.93866284 0.7513153 6.87572403 -0.875 9.8125 C-1.56529297 11.06256836 -1.56529297 11.06256836 -2.26953125 12.33789062 C-2.71425781 13.14033203 -3.15898437 13.94277344 -3.6171875 14.76953125 C-4.02565918 15.50792236 -4.43413086 16.24631348 -4.85498047 17.00708008 C-5.83486846 18.71258662 -6.90892671 20.36339006 -8 22 C-8.6875 20.1875 -8.6875 20.1875 -9 18 C-8.02246356 16.97803008 -7.0194119 15.98020375 -6 15 C-5.65846063 13.33499557 -5.32550502 11.66821323 -5 10 C-3.5625 7.6875 -3.5625 7.6875 -2 6 C-1.34 6 -0.68 6 0 6 C0 4.02 0 2.04 0 0 Z " fill="#676167" transform="translate(457,439)"/>
<path d="M0 0 C0 1.32 0 2.64 0 4 C-0.66 4 -1.32 4 -2 4 C-2.4021875 5.3303125 -2.4021875 5.3303125 -2.8125 6.6875 C-3.91710819 9.76877548 -5.22849144 12.26221405 -7 15 C-7.82638376 12.10765685 -8 10.11257569 -8 7 C-7.01 6.67 -6.02 6.34 -5 6 C-4.67 5.34 -4.34 4.68 -4 4 C-4.66 4 -5.32 4 -6 4 C-4.63772207 1.27544414 -3.11734545 0 0 0 Z " fill="#5B565C" transform="translate(489,386)"/>
<path d="M0 0 C3.465 1.485 3.465 1.485 7 3 C6.34 3.66 5.68 4.32 5 5 C4.62760773 7.81402683 4.62760773 7.81402683 4.5859375 11.1015625 C4.54726563 12.31328125 4.50859375 13.525 4.46875 14.7734375 C4.4378125 16.04445313 4.406875 17.31546875 4.375 18.625 C4.33632813 19.90375 4.29765625 21.1825 4.2578125 22.5 C4.16328951 25.66652017 4.07773643 28.8330304 4 32 C3.67 32 3.34 32 3 32 C2.98018066 31.20827393 2.96036133 30.41654785 2.93994141 29.60083008 C2.8445284 26.0043924 2.73491409 22.40852249 2.625 18.8125 C2.5940625 17.56662109 2.563125 16.32074219 2.53125 15.03710938 C2.49257813 13.83505859 2.45390625 12.63300781 2.4140625 11.39453125 C2.3826416 10.28956299 2.3512207 9.18459473 2.31884766 8.04614258 C2.00122818 5.01173354 1.27753965 2.75455478 0 0 Z " fill="#736F72" transform="translate(48,475)"/>
<path d="M0 0 C4.13621084 3.3810038 7.81316569 6.66590534 11 11 C9.68 11.33 8.36 11.66 7 12 C6.67 11.01 6.34 10.02 6 9 C5.01 8.67 4.02 8.34 3 8 C0.92469613 5.07920195 0 3.62453269 0 0 Z " fill="#545154" transform="translate(395,69)"/>
<path d="M0 0 C7.36603774 0.60377358 7.36603774 0.60377358 10 2.25 C11.33418933 4.58483133 11.21422686 6.35786868 11 9 C10.01 9 9.02 9 8 9 C7.67 8.01 7.34 7.02 7 6 C6.484375 5.484375 5.96875 4.96875 5.4375 4.4375 C4.963125 3.963125 4.48875 3.48875 4 3 C4 2.34 4 1.68 4 1 C2.68 0.67 1.36 0.34 0 0 Z " fill="#534E53" transform="translate(478,221)"/>
<path d="M0 0 C0.33 0 0.66 0 1 0 C1 2.31 1 4.62 1 7 C0.34 7 -0.32 7 -1 7 C-1 7.66 -1 8.32 -1 9 C-0.01 9.33 0.98 9.66 2 10 C1.67 10.99 1.34 11.98 1 13 C-0.98 13.33 -2.96 13.66 -5 14 C-4.34 13.01 -3.68 12.02 -3 11 C-2.40678131 9.11966003 -1.86904181 7.22129792 -1.375 5.3125 C-1.11460937 4.31863281 -0.85421875 3.32476562 -0.5859375 2.30078125 C-0.39257812 1.54152344 -0.19921875 0.78226562 0 0 Z " fill="#8D8F92" transform="translate(150,344)"/>
<path d="M0 0 C1.25556424 3.90619985 0.81588958 6.36822084 -1 10 C-3.06640625 10.4140625 -3.06640625 10.4140625 -5.5625 10.625 C-6.80193359 10.73714844 -6.80193359 10.73714844 -8.06640625 10.8515625 C-9.02353516 10.92503906 -9.02353516 10.92503906 -10 11 C-9.38382813 10.69578125 -8.76765625 10.3915625 -8.1328125 10.078125 C-4.25605768 8.11844674 -2.38316353 6.97706701 -0.75 2.8125 C-0.5025 1.884375 -0.255 0.95625 0 0 Z " fill="#8C8D90" transform="translate(193,349)"/>
<path d="M0 0 C1.32 0.99 2.64 1.98 4 3 C4.33 2.34 4.66 1.68 5 1 C5.99 2.32 6.98 3.64 8 5 C4.66666667 5 1.33333333 5 -2 5 C-1.34 3.35 -0.68 1.7 0 0 Z " fill="#4F4D4F" transform="translate(348,25)"/>
<path d="M0 0 C1.14926266 0.95421808 2.29430541 1.91352045 3.4375 2.875 C4.07558594 3.40867188 4.71367187 3.94234375 5.37109375 4.4921875 C7 6 7 6 8 8 C6.02 8 4.04 8 2 8 C1.67 6.68 1.34 5.36 1 4 C0.34 4 -0.32 4 -1 4 C-0.67 2.68 -0.34 1.36 0 0 Z " fill="#636064" transform="translate(362,36)"/>
<path d="M0 0 C0.66 0 1.32 0 2 0 C4.5393228 3.41831915 5.3636198 5.75776898 5 10 C3.5 8.6875 3.5 8.6875 2 7 C2 6.01 2 5.02 2 4 C1.34 4 0.68 4 0 4 C-0.33 3.01 -0.66 2.02 -1 1 C-0.67 0.67 -0.34 0.34 0 0 Z " fill="#575055" transform="translate(41,429)"/>
<path d="M0 0 C1.32 0.33 2.64 0.66 4 1 C1.525 5.455 1.525 5.455 -1 10 C-1.33 8.68 -1.66 7.36 -2 6 C-1.34 6 -0.68 6 0 6 C0 4.02 0 2.04 0 0 Z " fill="#736E73" transform="translate(457,439)"/>
<path d="M0 0 C0.66 0.33 1.32 0.66 2 1 C2.59355614 3.64860427 2.74209269 6.29197322 3 9 C1.68 8.67 0.36 8.34 -1 8 C-0.67 5.36 -0.34 2.72 0 0 Z " fill="#8F8D90" transform="translate(206,296)"/>
<path d="M0 0 C3.0916909 2.52956528 3.90931332 5.22454612 5 9 C4.01 9.33 3.02 9.66 2 10 C2 9.34 2 8.68 2 8 C1.34 8 0.68 8 0 8 C0 7.34 0 6.68 0 6 C0.66 6 1.32 6 2 6 C1.34 5.34 0.68 4.68 0 4 C-0.33 3.34 -0.66 2.68 -1 2 C-0.67 1.34 -0.34 0.68 0 0 Z " fill="#6C676A" transform="translate(28,403)"/>
<path d="M0 0 C2.3125 -0.25 2.3125 -0.25 5 0 C6.8125 2 6.8125 2 8 4 C5.36 3.67 2.72 3.34 0 3 C0 2.01 0 1.02 0 0 Z " fill="#555052" transform="translate(412,90)"/>
<path d="M0 0 C2.31 1.98 4.62 3.96 7 6 C6.67 6.66 6.34 7.32 6 8 C5.34 8 4.68 8 4 8 C4 7.34 4 6.68 4 6 C3.34 6 2.68 6 2 6 C2 5.34 2 4.68 2 4 C1.34 4 0.68 4 0 4 C0 2.68 0 1.36 0 0 Z " fill="#D8D7D9" transform="translate(330,28)"/>
<path d="M0 0 C0.33 0.66 0.66 1.32 1 2 C0.67 2.99 0.34 3.98 0 5 C0.66 5.33 1.32 5.66 2 6 C-0.375 7.5625 -0.375 7.5625 -3 9 C-3.66 8.67 -4.32 8.34 -5 8 C-4.34 6.68 -3.68 5.36 -3 4 C-2.34 4 -1.68 4 -1 4 C-0.67 2.68 -0.34 1.36 0 0 Z " fill="#726D71" transform="translate(444,433)"/>
<path d="M0 0 C0 1.32 0 2.64 0 4 C-0.66 4 -1.32 4 -2 4 C-2 4.66 -2 5.32 -2 6 C-2.66 6 -3.32 6 -4 6 C-4 5.34 -4 4.68 -4 4 C-4.66 4 -5.32 4 -6 4 C-4.63772207 1.27544414 -3.11734545 0 0 0 Z " fill="#514D50" transform="translate(489,386)"/>
<path d="M0 0 C0.93065133 2.60582371 1.14917407 3.64198224 0.0625 6.25 C-0.4634375 7.11625 -0.4634375 7.11625 -1 8 C-1.66 7.67 -2.32 7.34 -3 7 C-1.125 1.125 -1.125 1.125 0 0 Z " fill="#565154" transform="translate(450,422)"/>
</svg>
