<?xml version="1.0" encoding="UTF-8"?>
<svg version="1.1" xmlns="http://www.w3.org/2000/svg" width="512" height="512">
<path d="M0 0 C1.17386261 -0.0010675 2.34772522 -0.00213501 3.55715942 -0.00323486 C22.01061204 0.02097835 39.3853072 1.05365175 57.375 5.4375 C58.36258301 5.66743652 59.35016602 5.89737305 60.36767578 6.13427734 C125.60655358 21.56231656 183.20755988 63.16398106 218.69140625 120.015625 C235.9381861 148.2204429 248.6168693 179.17782929 253.96533203 211.93286133 C254.25145771 213.68218396 254.56738643 215.42677686 254.90576172 217.16674805 C256.91819847 228.71806319 256.74715152 240.35412542 256.74560547 252.04614258 C256.74994515 255.70377371 256.78626187 259.36016207 256.82421875 263.01757812 C257.10871883 322.33396721 233.70333472 382.47756406 193.453125 426.17578125 C191.56771065 428.22776416 189.74729967 430.31901954 187.9375 432.4375 C174.98572528 447.2780752 158.02935688 463.22653119 140.375 472.4375 C137.00019772 471.31256591 136.67284448 470.80860646 134.81665039 467.95141602 C134.32558807 467.20454529 133.83452576 466.45767456 133.32858276 465.68817139 C132.79862701 464.86423889 132.26867126 464.0403064 131.72265625 463.19140625 C131.15918488 462.33017151 130.5957135 461.46893677 130.01516724 460.581604 C128.14863265 457.7257683 126.29326947 454.86284028 124.4375 452 C122.47404677 448.99059649 120.50760486 445.98316091 118.54090881 442.97587585 C117.18595978 440.90379799 115.83191783 438.83112672 114.47874451 436.75788879 C108.16928681 427.09765733 101.76627542 417.50145056 95.34634399 407.91442871 C86.91291213 395.31787988 78.5477781 382.69448506 70.43701172 369.88720703 C63.959206 359.69958515 57.23788628 349.67681901 50.5269165 339.64193726 C41.50496031 326.15108635 32.54527294 312.62079086 23.625 299.0625 C15.08083642 286.07772084 6.51181499 273.11085124 -2.125 260.1875 C-9.02411718 249.8624444 -15.88090186 239.51128571 -22.6875 229.125 C-23.52664842 227.8455927 -24.36584145 226.56621465 -25.20507812 225.28686523 C-29.23790593 219.13753444 -33.26742406 212.98607701 -37.28857422 206.82910156 C-40.57472074 201.79799486 -43.86702974 196.77096192 -47.16256714 191.7460022 C-48.46239629 189.76158221 -49.76005452 187.7757384 -51.05545044 185.78842163 C-52.87518692 182.99720903 -54.70238736 180.21101985 -56.53125 177.42578125 C-57.07309433 176.5907608 -57.61493866 175.75574036 -58.17320251 174.89541626 C-63.21574281 166.75896778 -63.21574281 166.75896778 -71.3671875 162.66015625 C-72.74363779 162.58251708 -74.1216802 162.52962743 -75.5 162.5 C-76.18191406 162.45810547 -76.86382812 162.41621094 -77.56640625 162.37304688 C-83.53182305 162.11738616 -88.5749561 163.07080407 -93.625 166.4375 C-93.94239178 169.28243852 -94.06235136 171.91393707 -94.05737305 174.76391602 C-94.07263928 176.06969793 -94.07263928 176.06969793 -94.08821392 177.40185928 C-94.11869936 180.33177062 -94.12767097 183.26135591 -94.13671875 186.19140625 C-94.15385864 188.27936321 -94.17224825 190.36731023 -94.19180298 192.45524597 C-94.24072666 198.12285609 -94.27042307 203.79041582 -94.29556656 209.45817566 C-94.31810319 214.17197163 -94.34972831 218.88568896 -94.38125515 223.59943199 C-94.46274051 235.84055384 -94.52216644 248.08169099 -94.57315731 260.32297325 C-94.60989738 268.82920209 -94.66209629 277.33522511 -94.72363281 285.84130859 C-94.7975587 296.07289157 -94.85727269 306.30441333 -94.8966074 316.53619099 C-94.91721866 321.88752084 -94.94354873 327.23865942 -94.98471069 332.58987427 C-95.02255721 337.6056035 -95.04096305 342.62102873 -95.04413986 347.63689613 C-95.0485155 349.47176384 -95.05973293 351.30662991 -95.07829666 353.14140892 C-95.10245756 355.63858939 -95.10188132 358.1345762 -95.0949707 360.63183594 C-95.10778422 361.35615594 -95.12059774 362.08047594 -95.13379955 362.82674503 C-95.08405248 367.63204656 -94.03217124 370.06444042 -90.625 373.4375 C-87.51113918 374.99443041 -84.22755068 374.66317195 -80.8125 374.6875 C-80.10029297 374.708125 -79.38808594 374.72875 -78.65429688 374.75 C-74.09437848 374.78374593 -71.27617297 374.19152761 -67.625 371.4375 C-63.22002351 367.03252351 -65.44539124 352.03865905 -65.41967773 346.26708984 C-65.41007798 344.86661504 -65.40006674 343.46614301 -65.38967896 342.06567383 C-65.36285072 338.2936769 -65.34172291 334.52166774 -65.32167697 330.7496295 C-65.29967973 326.79649394 -65.27235881 322.84339512 -65.24562073 318.89028931 C-65.1958783 311.41787342 -65.15087171 303.94543694 -65.10759836 296.4729811 C-65.05806742 287.9601904 -65.00320854 279.44743659 -64.94791877 270.93468165 C-64.83438229 253.43565527 -64.72748252 235.93659454 -64.625 218.4375 C-60.86738479 219.6900384 -60.47033364 220.81682684 -58.375 224.125 C-57.66472656 225.22199219 -56.95445312 226.31898438 -56.22265625 227.44921875 C-55.81547363 228.07876465 -55.40829102 228.70831055 -54.98876953 229.35693359 C-52.32292919 233.42393886 -49.55941441 237.42502741 -46.8125 241.4375 C-27.62569912 269.53452761 -8.57125247 297.7225005 10.453125 325.9296875 C11.05088745 326.8158374 11.6486499 327.7019873 12.26452637 328.61499023 C15.16945327 332.92142212 18.07370726 337.2283042 20.9765625 341.53613281 C34.26972649 361.36232824 34.26972649 361.36232824 48.1875 380.75 C49.38291586 382.36190252 50.57822527 383.97388398 51.7734375 385.5859375 C52.66820801 386.79008301 52.66820801 386.79008301 53.58105469 388.01855469 C55.92413297 391.17794767 58.2522835 394.34818683 60.58081055 397.51831055 C65.97197627 404.85525158 71.40428725 412.15968729 76.875 419.4375 C84.71894362 429.87247532 92.46325731 440.37922219 100.18505859 450.90478516 C101.99726884 453.37483595 103.81092008 455.84382211 105.625 458.3125 C106.2027417 459.10019775 106.7804834 459.88789551 107.37573242 460.69946289 C110.03115318 464.30787833 112.70842871 467.89114496 115.4765625 471.4140625 C115.94803711 472.01492676 116.41951172 472.61579102 116.90527344 473.23486328 C118.1561096 474.81861989 119.41748317 476.39403849 120.6796875 477.96875 C122.375 480.4375 122.375 480.4375 122.375 483.4375 C108.32238892 490.47719262 94.37347047 496.72139383 79.375 501.4375 C78.57513672 501.69869629 77.77527344 501.95989258 76.95117188 502.22900391 C70.81703715 504.22001516 64.63870003 505.90490371 58.375 507.4375 C57.40191895 507.68306641 56.42883789 507.92863281 55.42626953 508.18164062 C19.82533816 516.74167424 -22.12163287 516.14940803 -57.625 507.4375 C-58.57632813 507.22351563 -59.52765625 507.00953125 -60.5078125 506.7890625 C-97.2942257 498.48906398 -132.70098345 480.56063873 -161.625 456.4375 C-162.18993164 455.97408203 -162.75486328 455.51066406 -163.33691406 455.03320312 C-176.67645234 444.07599365 -189.071287 432.1298637 -199.625 418.4375 C-200.42164063 417.43460937 -201.21828125 416.43171875 -202.0390625 415.3984375 C-228.16730144 382.33250771 -246.40618975 342.64265806 -253.21533203 300.94213867 C-253.50145771 299.19281604 -253.81738643 297.44822314 -254.15576172 295.70825195 C-256.16819847 284.15693681 -255.99715152 272.52087458 -255.99560547 260.82885742 C-255.99994515 257.17122629 -256.03626187 253.51483793 -256.07421875 249.85742188 C-256.29390058 204.05520895 -242.4438187 157.97977794 -217.625 119.4375 C-217.19751465 118.77347168 -216.7700293 118.10944336 -216.32958984 117.42529297 C-179.05642291 60.21049838 -120.45368101 18.88394756 -53.47753906 4.56396484 C-49.53581536 3.76614257 -45.60079876 3.04572975 -41.625 2.4375 C-40.55491699 2.26307373 -39.48483398 2.08864746 -38.38232422 1.90893555 C-25.62524485 0.04856282 -12.87310784 -0.00248409 0 0 Z M64.5 158.375 C62.59043176 161.87587511 62.23292841 164.70361566 62.16053772 168.62348938 C62.13893082 169.69807404 62.11732391 170.77265869 62.09506226 171.87980652 C62.0766629 173.05940445 62.05826355 174.23900238 62.03930664 175.4543457 C62.01667252 176.69716309 61.99403839 177.93998047 61.97071838 179.22045898 C61.77283638 190.7411011 61.65623695 202.26290487 61.56749821 213.78486347 C61.50663915 221.51554035 61.41971442 229.24398866 61.26391602 236.97338867 C61.12770981 243.73107103 61.04288066 250.48720896 61.01709074 257.24624699 C61.00188978 260.81344441 60.96377294 264.37654539 60.86421394 267.94246864 C60.3637907 286.65564836 62.87204083 299.25863481 74.64050102 314.19748497 C77.26019058 317.5806775 79.55392317 321.1590855 81.875 324.75 C82.66265523 325.92629789 83.45291289 327.10085846 84.24609375 328.2734375 C86.63639487 331.82599513 88.98264253 335.40619658 91.31640625 338.99609375 C91.66574219 339.47175781 92.01507813 339.94742188 92.375 340.4375 C92.705 340.4375 93.035 340.4375 93.375 340.4375 C93.49178392 317.20248431 93.57996405 293.96751699 93.63406086 270.73226738 C93.65984622 259.94380764 93.69500322 249.15553022 93.75219727 238.3671875 C93.80202191 228.96443375 93.8342886 219.56181204 93.84544247 210.15892994 C93.8519628 205.17977055 93.86729445 200.2009889 93.90365028 195.22195053 C93.93759483 190.53516118 93.94805605 185.84890508 93.94053841 181.16200447 C93.94191364 179.44228403 93.95185547 177.72254571 93.97102737 176.00293159 C93.99594283 173.65282081 93.98991259 171.30471751 93.97627258 168.95455933 C93.98088155 167.64008253 93.98549051 166.32560574 93.99023914 164.97129631 C93.18038532 160.31967673 91.71862885 158.71839629 88.375 155.4375 C85.58906972 154.41662862 85.58906972 154.41662862 82.375 154.4375 C81.66988281 154.40011719 80.96476562 154.36273438 80.23828125 154.32421875 C74.60362551 154.14245566 68.65124723 154.08537786 64.5 158.375 Z " fill="#000000" transform="translate(255.625,-0.4375)"/>
</svg>
