<?xml version="1.0" encoding="UTF-8"?>
<svg version="1.1" xmlns="http://www.w3.org/2000/svg" width="210" height="232">
<path d="M0 0 C1.21751953 0.37008682 2.43503906 0.74017365 3.68945312 1.12147522 C6.94224019 2.11054196 10.18788619 3.12124859 13.4323616 4.1371994 C16.79167307 5.18553106 20.15668459 6.21523173 23.52124023 7.24658203 C27.54520027 8.48146867 31.56839418 9.71867169 35.58851624 10.96600342 C43.28097788 13.35254088 50.98593585 15.68736939 58.71484375 17.953125 C61.19455477 18.68570098 63.67396592 19.41928273 66.15328979 20.15316772 C67.66273011 20.59736792 69.17340561 21.03739406 70.68533325 21.47305298 C72.73180172 22.06421142 74.77242509 22.67236309 76.8125 23.28515625 C77.92310791 23.6104834 79.03371582 23.93581055 80.17797852 24.27099609 C83.2028119 25.59434356 84.31526977 26.56134915 85.87109375 29.44921875 C86.2434082 31.45019531 86.2434082 31.45019531 86.234375 33.58984375 C86.23542236 34.4001001 86.23646973 35.21035645 86.23754883 36.04516602 C86.21974365 36.92100342 86.20193848 37.79684082 86.18359375 38.69921875 C86.17158936 39.62597412 86.15958496 40.55272949 86.1472168 41.50756836 C85.21555166 88.95905763 74.53484098 141.48820099 45.87109375 180.44921875 C45.29875 181.23167969 44.72640625 182.01414063 44.13671875 182.8203125 C39.72032461 188.6649442 34.85144261 194.08300502 29.87109375 199.44921875 C29.33097656 200.05507812 28.79085937 200.6609375 28.234375 201.28515625 C18.5458223 211.68143698 5.77119738 218.82956777 -7.12890625 224.44921875 C-8.27746094 224.95195312 -9.42601563 225.4546875 -10.609375 225.97265625 C-17.51394593 228.5629015 -22.06012208 228.80402977 -28.8984375 225.9765625 C-29.96449219 225.47253906 -31.03054687 224.96851563 -32.12890625 224.44921875 C-33.06355713 224.02987061 -33.06355713 224.02987061 -34.01708984 223.60205078 C-70.34645532 207.2613809 -93.08167246 174.35859159 -106.95898438 138.15600586 C-112.27497963 123.90618525 -116.23839899 109.64628477 -119.37890625 94.76171875 C-119.62535889 93.59882324 -119.87181152 92.43592773 -120.12573242 91.23779297 C-123.10646447 76.518561 -124.5186412 61.95957049 -124.55444336 46.95068359 C-124.5666486 44.52607602 -124.61635142 42.103785 -124.66601562 39.6796875 C-124.67545149 38.12631423 -124.6827 36.57292576 -124.6875 35.01953125 C-124.70703232 34.30088898 -124.72656464 33.5822467 -124.74668884 32.84182739 C-124.72827148 30.82470703 -124.72827148 30.82470703 -124.12890625 27.44921875 C-120.01219692 24.27222512 -115.13791297 23.02041837 -110.23046875 21.53833008 C-109.34353836 21.26479202 -108.45660797 20.99125397 -107.5428009 20.70942688 C-104.61541151 19.80918285 -101.68497136 18.91944824 -98.75390625 18.03125 C-96.70708921 17.40784769 -94.66029595 16.78436729 -92.61352539 16.16081238 C-88.32120777 14.85538373 -84.02709049 13.55606369 -79.73193359 12.26000977 C-74.25417375 10.60579012 -68.78367956 8.92879875 -63.31463623 7.24602222 C-59.08697548 5.94950218 -54.85448494 4.66934586 -50.62054443 3.39349937 C-48.60313729 2.78265733 -46.58750064 2.16593346 -44.5737915 1.5430088 C-28.4029148 -3.44892406 -16.47097202 -5.22489415 0 0 Z " fill="#38E9D5" transform="translate(124.12890625,3.55078125)"/>
<path d="M0 0 C0.99 0.495 0.99 0.495 2 1 C2.96378746 52.40199788 -6.84260388 109.64950569 -38 152 C-38.57234375 152.78246094 -39.1446875 153.56492188 -39.734375 154.37109375 C-44.15076914 160.21572545 -49.01965114 165.63378627 -54 171 C-54.81017578 171.90878906 -54.81017578 171.90878906 -55.63671875 172.8359375 C-65.32527145 183.23221823 -78.09989637 190.38034902 -91 196 C-92.14855469 196.50273437 -93.29710938 197.00546875 -94.48046875 197.5234375 C-101.38503968 200.11368275 -105.93121583 200.35481102 -112.76953125 197.52734375 C-113.83558594 197.02332031 -114.90164062 196.51929688 -116 196 C-116.62310059 195.72043457 -117.24620117 195.44086914 -117.88818359 195.15283203 C-142.66315013 184.00924215 -160.37466094 165.3601152 -174.83007812 142.81835938 C-175.87031354 141.2015661 -176.93357388 139.59963918 -178 138 C-178 137.01 -178 136.02 -178 135 C-176.07576907 133.425348 -174.1885468 132.05892897 -172.125 130.6875 C-165.1400756 125.89799503 -158.4832698 120.75753788 -151.86767578 115.47143555 C-151.13274902 114.89047119 -150.39782227 114.30950684 -149.640625 113.7109375 C-148.98610352 113.18806152 -148.33158203 112.66518555 -147.65722656 112.12646484 C-146 111 -146 111 -144 111 C-144 110.34 -144 109.68 -144 109 C-143.34 109 -142.68 109 -142 109 C-140.95244255 110.14576596 -139.96190283 111.3439356 -139 112.5625 C-131.7025267 121.06368023 -122.11658356 127.22441598 -110.75585938 128.19091797 C-94.93762617 128.95765051 -83.27270493 126.94419166 -70.75 116.6875 C-61.66845459 108.24550004 -57.23428011 97.10572682 -55.5859375 84.9453125 C-55.17718347 72.1252997 -60.00554334 61.36756624 -67 51 C-56.63178358 42.99781441 -46.21470843 35.06036442 -35.79345703 27.12744141 C-32.99537766 24.99647971 -30.19864904 22.86375778 -27.40234375 20.73046875 C-18.29526841 13.78383394 -9.18378943 6.84506044 0 0 Z " fill="#8C2AE9" transform="translate(208,32)"/>
<path d="M0 0 C11.07525809 8.54932203 17.39245642 19.74821144 19.25 33.4375 C20.61658781 45.05349638 17.08707759 56.96500412 10.4375 66.5 C2.74196337 76.07284631 -7.14504529 84.03865746 -19.75 85.4375 C-35.65527844 86.49307667 -48.04624788 84.79526305 -60.75 74.4375 C-61.70519531 73.68726563 -61.70519531 73.68726563 -62.6796875 72.921875 C-70.90781065 65.68112663 -76.18986235 53.26905417 -76.9609375 42.48828125 C-77.44526644 26.74759062 -72.4725621 14.85640883 -61.80859375 3.40625 C-44.98802955 -12.68020988 -18.49417281 -12.26967974 0 0 Z " fill="#E2E0F8" transform="translate(133.75,75.5625)"/>
<path d="M0 0 C1.82634727 0.55519821 1.82634727 0.55519821 3.68959045 1.12161255 C6.94238237 2.11075216 10.18804059 3.12151711 13.43256378 4.13740158 C16.7909888 5.18522317 20.15525113 6.2139501 23.51904297 7.24438477 C28.19922167 8.67983941 32.87730334 10.12178162 37.552845 11.57226849 C44.60466345 13.75935021 51.66970065 15.89544096 58.75 17.98828125 C61.23625427 18.72761594 63.72227117 19.46774324 66.20822144 20.20809937 C67.72483591 20.65795138 69.24234892 21.10478588 70.76077271 21.54849243 C72.81373617 22.14986963 74.86225208 22.76446605 76.91015625 23.3828125 C78.02600098 23.71337646 79.1418457 24.04394043 80.29150391 24.38452148 C82.87109375 25.44921875 82.87109375 25.44921875 84.87109375 28.44921875 C76.13507307 35.57906522 67.25086015 42.44008818 58.14233398 49.08764648 C52.55747647 53.17520813 47.06734197 57.36653167 41.62109375 61.63671875 C35.91962775 66.09933379 30.19057144 70.51619267 24.37109375 74.82421875 C23.74170898 75.29496826 23.11232422 75.76571777 22.46386719 76.25073242 C18.10842981 79.44921875 18.10842981 79.44921875 15.87109375 79.44921875 C15.19046875 78.74796875 14.50984375 78.04671875 13.80859375 77.32421875 C4.55002083 67.79571659 -7.35020412 64.40889192 -20.12890625 62.44921875 C-20.13301514 61.83401367 -20.13712402 61.21880859 -20.14135742 60.58496094 C-20.17431921 57.78874644 -20.24496201 54.99470371 -20.31640625 52.19921875 C-20.32220703 51.23113281 -20.32800781 50.26304688 -20.33398438 49.265625 C-20.39470379 43.50091378 -20.39470379 43.50091378 -23.55078125 38.90234375 C-24.4015625 38.4228125 -25.25234375 37.94328125 -26.12890625 37.44921875 C-27.48259221 36.13655357 -28.81690221 34.8035455 -30.12890625 33.44921875 C-30.78890625 32.78921875 -31.44890625 32.12921875 -32.12890625 31.44921875 C-43.12890625 20.44921875 -43.12890625 20.44921875 -45.62890625 17.88671875 C-48.08127623 15.41152767 -48.08127623 15.41152767 -50.81640625 13.32421875 C-53.12890625 11.44921875 -53.12890625 11.44921875 -55.12890625 8.44921875 C-56.11890625 7.78921875 -57.10890625 7.12921875 -58.12890625 6.44921875 C-54.10865747 5.15572786 -50.0876049 3.86475335 -46.06640625 2.57421875 C-44.93267578 2.20941406 -43.79894531 1.84460938 -42.63085938 1.46875 C-40.42254982 0.76054577 -38.21212804 0.05888963 -35.99951172 -0.63574219 C-33.86300741 -1.31677792 -31.74283018 -2.0494589 -29.6328125 -2.80859375 C-19.27884188 -5.00174249 -9.91694519 -3.14586688 0 0 Z " fill="#1FB8ED" transform="translate(124.12890625,3.55078125)"/>
<path d="M0 0 C0.66 0 1.32 0 2 0 C3.04755745 1.14576596 4.03809717 2.3439356 5 3.5625 C11.87004287 11.56574582 20.50948774 17.24270607 31 19 C38.66072809 19.43702591 46.33529744 19.25328199 54 19 C53.50886719 19.90492188 53.50886719 19.90492188 53.0078125 20.828125 C51.82576973 23.37547299 51.84578447 25.22412038 52 28 C52.66 28 53.32 28 54 28 C54.495 29.485 54.495 29.485 55 31 C54.34 31 53.68 31 53 31 C52.731875 31.928125 52.46375 32.85625 52.1875 33.8125 C51.04142433 36.88880839 50.26517658 37.83330936 48 40 C47.77376953 40.90492188 47.77376953 40.90492188 47.54296875 41.828125 C46.77595678 44.89617288 45.25284265 47.43445999 43.7421875 50.1953125 C43.49726562 50.79085937 43.25234375 51.38640625 43 52 C43.33 52.66 43.66 53.32 44 54 C43.01 54.99 43.01 54.99 42 56 C41.05678735 59.52354328 40.84571847 62.92710723 40.75390625 66.5625 C40.70459961 68.12871094 40.70459961 68.12871094 40.65429688 69.7265625 C40.59310193 71.9087482 40.53580971 74.09104684 40.48242188 76.2734375 C40.44826172 77.31757813 40.41410156 78.36171875 40.37890625 79.4375 C40.34132202 80.85869141 40.34132202 80.85869141 40.30297852 82.30859375 C39.98067565 85.17166128 39.18564174 87.38619215 38 90 C7.68348045 83.0038801 -14.67456215 59.01124669 -30.83007812 33.81835938 C-31.87031354 32.2015661 -32.93357388 30.59963918 -34 29 C-34 28.01 -34 27.02 -34 26 C-32.07576907 24.425348 -30.1885468 23.05892897 -28.125 21.6875 C-21.1400756 16.89799503 -14.4832698 11.75753788 -7.86767578 6.47143555 C-7.13274902 5.89047119 -6.39782227 5.30950684 -5.640625 4.7109375 C-4.98610352 4.18806152 -4.33158203 3.66518555 -3.65722656 3.12646484 C-2 2 -2 2 0 2 C0 1.34 0 0.68 0 0 Z M55 29 C57 30 57 30 57 30 Z " fill="#C63CE6" transform="translate(64,141)"/>
<path d="M0 0 C0.21089594 11.24778324 0.06891445 22.40507092 -0.8125 33.625 C-0.88259277 34.594375 -0.95268555 35.56375 -1.02490234 36.5625 C-1.81147776 45.7313631 -3.21004453 57.21004453 -10 64 C-11.32 64 -12.64 64 -14 64 C-14.33 64.66 -14.66 65.32 -15 66 C-15.66 66.66 -16.32 67.32 -17 68 C-16.01 68.99 -16.01 68.99 -15 70 C-16.32 70.99 -17.64 71.98 -19 73 C-19.99 72.01 -19.99 72.01 -21 71 C-20.625 67.875 -20.625 67.875 -20 65 C-20.763125 65.94875 -21.52625 66.8975 -22.3125 67.875 C-24.15534046 70.16609895 -25.46837417 71.31224944 -28 73 C-28.66 73.99 -29.32 74.98 -30 76 C-30.33 76 -30.66 76 -31 76 C-31.0825 76.53625 -31.165 77.0725 -31.25 77.625 C-32.68663147 82.17433297 -35.05794887 85.37196591 -39 88 C-39.66 87.67 -40.32 87.34 -41 87 C-40.814375 87.598125 -40.62875 88.19625 -40.4375 88.8125 C-40 91 -40 91 -41 94 C-41.61875 94.598125 -42.2375 95.19625 -42.875 95.8125 C-45.20679034 97.94209313 -45.20679034 97.94209313 -46.3125 101.1875 C-46.869375 102.115625 -47.42625 103.04375 -48 104 C-51.6875 104.875 -51.6875 104.875 -55 105 C-55.33 105.99 -55.66 106.98 -56 108 C-58.97172226 110.7667759 -59.74190625 111 -64 111 C-65.485 111.99 -65.485 111.99 -67 113 C-65.97038873 110.9170537 -64.9206915 108.85316149 -63.81640625 106.80859375 C-56.95966777 93.84273625 -55.16496996 82.00840716 -59.08203125 67.79296875 C-61.14147436 61.52700355 -64.32240777 56.45112836 -68 51 C-57.63178358 42.99781441 -47.21470843 35.06036442 -36.79345703 27.12744141 C-33.99537766 24.99647971 -31.19864904 22.86375778 -28.40234375 20.73046875 C-23.27128612 16.81628788 -18.13707338 12.90628193 -13 9 C-11.9783374 8.22245361 -11.9783374 8.22245361 -10.93603516 7.42919922 C-9.20943188 6.11669453 -7.4803895 4.80750664 -5.75 3.5 C-4.83734375 2.8090625 -3.9246875 2.118125 -2.984375 1.40625 C-1 0 -1 0 0 0 Z " fill="#983AE0" transform="translate(209,32)"/>
<path d="M0 0 C2.0161429 0.0070618 4.03113421 0.12588892 6.04296875 0.2578125 C5.51703125 1.6809375 5.51703125 1.6809375 4.98046875 3.1328125 C3.69270098 6.12841422 3.69270098 6.12841422 5.04296875 8.2578125 C4.38296875 8.2578125 3.72296875 8.2578125 3.04296875 8.2578125 C3.22859375 9.1446875 3.41421875 10.0315625 3.60546875 10.9453125 C4.20605377 15.49259906 3.62456629 18.11885066 1.54296875 22.1953125 C0.02673619 25.29095397 -0.55192874 27.85495143 -0.95703125 31.2578125 C-1.61703125 31.2578125 -2.27703125 31.2578125 -2.95703125 31.2578125 C-2.95703125 31.9178125 -2.95703125 32.5778125 -2.95703125 33.2578125 C-3.61703125 33.2578125 -4.27703125 33.2578125 -4.95703125 33.2578125 C-5.28703125 34.2478125 -5.61703125 35.2378125 -5.95703125 36.2578125 C-5.95703125 35.5978125 -5.95703125 34.9378125 -5.95703125 34.2578125 C-6.61703125 34.9178125 -7.27703125 35.5778125 -7.95703125 36.2578125 C-7.95703125 37.1446875 -7.95703125 38.0315625 -7.95703125 38.9453125 C-7.95703125 46.53000436 -11.53184788 52.70573501 -14.95703125 59.2578125 C-17.77752385 64.68253732 -17.77752385 64.68253732 -19.95703125 70.3828125 C-21.13830004 73.77896028 -22.92414918 76.30089313 -24.95703125 79.2578125 C-27.19249771 83.05899746 -27.19249771 83.05899746 -27.95703125 87.2578125 C-30.45360565 88.39096641 -32.95386897 89.51437829 -35.45703125 90.6328125 C-36.153125 90.94992188 -36.84921875 91.26703125 -37.56640625 91.59375 C-42.30081702 93.69793256 -46.84531742 95.33548153 -51.95703125 96.2578125 C-52.61703125 95.5978125 -53.27703125 94.9378125 -53.95703125 94.2578125 C-53.76520154 92.65851312 -53.55657155 91.05992284 -53.27685547 89.47363281 C-52.90258561 86.88059978 -52.79621683 84.3372231 -52.7109375 81.71875 C-52.67806641 80.72617188 -52.64519531 79.73359375 -52.61132812 78.7109375 C-52.54990078 76.65116085 -52.49263968 74.59125592 -52.43945312 72.53125 C-52.40529297 71.54125 -52.37113281 70.55125 -52.3359375 69.53125 C-52.31088135 68.63841309 -52.2858252 67.74557617 -52.26000977 66.82568359 C-51.92856734 64.01656886 -51.08757515 61.83900564 -49.95703125 59.2578125 C-49.81265625 58.6184375 -49.66828125 57.9790625 -49.51953125 57.3203125 C-48.72982033 54.42470579 -47.31878699 51.92685376 -45.95703125 49.2578125 C-45.65925781 48.46890625 -45.36148438 47.68 -45.0546875 46.8671875 C-43.90459843 44.13316794 -42.50875717 41.88750025 -40.83203125 39.4453125 C-40.29320313 38.65511719 -39.754375 37.86492187 -39.19921875 37.05078125 C-38.78929688 36.45910156 -38.379375 35.86742187 -37.95703125 35.2578125 C-38.94703125 34.5978125 -39.93703125 33.9378125 -40.95703125 33.2578125 C-40.62703125 31.6078125 -40.29703125 29.9578125 -39.95703125 28.2578125 C-40.61703125 27.9278125 -41.27703125 27.5978125 -41.95703125 27.2578125 C-40.50241809 24.34858617 -38.60182547 24.2429168 -35.58203125 23.1328125 C-27.33805268 19.80973434 -20.72418133 14.78429689 -14.14453125 8.8828125 C-11.28238489 6.32953085 -8.61874618 5.42290361 -4.95703125 4.2578125 C-4.50328125 3.5565625 -4.04953125 2.8553125 -3.58203125 2.1328125 C-1.95703125 0.2578125 -1.95703125 0.2578125 0 0 Z " fill="#A41FE6" transform="translate(155.95703125,135.7421875)"/>
<path d="M0 0 C6.083224 3.18062535 8.79534514 7.88603543 10.9375 14.3125 C11.63867012 20.29941407 10.60711154 25.57321033 8.9375 31.3125 C9.51725586 31.57353516 10.09701172 31.83457031 10.69433594 32.10351562 C14.76854944 34.29936949 17.87112851 37.62503341 21.1875 40.8125 C22.30511719 41.81796875 22.30511719 41.81796875 23.4453125 42.84375 C28.69418232 47.91958015 28.69418232 47.91958015 29.41992188 52.07421875 C29.421875 54.84375 29.421875 54.84375 28.9375 59.3125 C23.9875 59.3125 19.0375 59.3125 13.9375 59.3125 C13.2775 57.3325 12.6175 55.3525 11.9375 53.3125 C8.91970128 51.86089062 8.91970128 51.86089062 5.9375 51.3125 C5.9375 49.3325 5.9375 47.3525 5.9375 45.3125 C5.33421875 45.27511719 4.7309375 45.23773438 4.109375 45.19921875 C3.31015625 45.13347656 2.5109375 45.06773437 1.6875 45 C0.50414063 44.91298828 0.50414063 44.91298828 -0.703125 44.82421875 C-3.0625 44.3125 -3.0625 44.3125 -4.99609375 42.828125 C-7.63309059 40.89399499 -9.64522416 40.74399878 -12.875 40.375 C-19.50909433 39.38917843 -23.6591554 37.84575512 -28.375 32.875 C-32.69257928 26.3186759 -32.81176354 19.98533807 -32.0625 12.3125 C-30.37480043 6.64304215 -25.81417471 2.59788066 -21.0625 -0.6875 C-14.41287306 -2.90404231 -6.48475623 -2.67590607 0 0 Z " fill="#FD6803" transform="translate(104.0625,83.6875)"/>
<path d="M0 0 C0.21089594 11.24778324 0.06891445 22.40507092 -0.8125 33.625 C-0.88259277 34.594375 -0.95268555 35.56375 -1.02490234 36.5625 C-1.81147776 45.7313631 -3.21004453 57.21004453 -10 64 C-11.32 64 -12.64 64 -14 64 C-14.33 64.66 -14.66 65.32 -15 66 C-15.99 66.99 -15.99 66.99 -17 68 C-16.34 68.66 -15.68 69.32 -15 70 C-16.32 70.99 -17.64 71.98 -19 73 C-19.66 72.34 -20.32 71.68 -21 71 C-20.625 67.875 -20.625 67.875 -20 65 C-20.763125 65.94875 -21.52625 66.8975 -22.3125 67.875 C-24.15534046 70.16609895 -25.46837417 71.31224944 -28 73 C-28.66 73.99 -29.32 74.98 -30 76 C-30.84454356 72.62182575 -31.10844919 70.32534757 -30 67 C-30.66 67 -31.32 67 -32 67 C-31.62875 65.96875 -31.2575 64.9375 -30.875 63.875 C-29.66398505 60.0985231 -29.66398505 60.0985231 -31.0625 56.9375 C-32 54 -32 54 -30.75 50.75 C-29 48 -29 48 -27 46 C-26.62913819 44.00661779 -26.30262289 42.00487668 -26 40 C-25.39145151 37.64600236 -24.69887833 35.32959444 -24 33 C-23.34 33 -22.68 33 -22 33 C-21.896875 31.989375 -21.79375 30.97875 -21.6875 29.9375 C-20.95898777 25.76511179 -19.76383415 22.82164065 -18 19 C-17.67 18.01 -17.34 17.02 -17 16 C-16.34 15.34 -15.68 14.68 -15 14 C-14.78053711 13.02788574 -14.78053711 13.02788574 -14.55664062 12.03613281 C-13.59253463 8.50953458 -10.33447436 6.82018934 -7.5 4.75 C-6.89285156 4.29109375 -6.28570312 3.8321875 -5.66015625 3.359375 C-1.17099144 0 -1.17099144 0 0 0 Z " fill="#8937E6" transform="translate(209,32)"/>
<path d="M0 0 C-0.58803797 3.02419525 -1.22678118 6.01758453 -2 9 C0.49064888 9.68707555 2.37886292 10 5 10 C6 10 6 10 7.5625 11.5 C8.036875 11.995 8.51125 12.49 9 13 C7.125 18.75 7.125 18.75 6 21 C6.66 21 7.32 21 8 21 C1.11504593 41.11334898 -21.54261238 63.51495358 -40 73 C-40.99 72.67 -41.98 72.34 -43 72 C-40.25 65.125 -40.25 65.125 -38 64 C-38 63.01 -38 62.02 -38 61 C-37.01 60.505 -37.01 60.505 -36 60 C-36 59.01 -36 58.02 -36 57 C-35.01 56.505 -35.01 56.505 -34 56 C-34 55.01 -34 54.02 -34 53 C-33.34 53 -32.68 53 -32 53 C-32 51.68 -32 50.36 -32 49 C-31.34 49 -30.68 49 -30 49 C-30 47.68 -30 46.36 -30 45 C-29.34 45 -28.68 45 -28 45 C-27.896875 44.113125 -27.79375 43.22625 -27.6875 42.3125 C-27 39 -27 39 -25.5 36.8125 C-23.49536653 33.05381224 -23.45017064 29.63514538 -23.2109375 25.42578125 C-23 23 -23 23 -22 21 C-19.4375 20.375 -19.4375 20.375 -17 20 C-16.71125 18.9275 -16.4225 17.855 -16.125 16.75 C-14.40818803 11.02729342 -12.50247434 8.05222691 -8 4 C-7.34 4 -6.68 4 -6 4 C-5.67 3.01 -5.34 2.02 -5 1 C-3 0 -3 0 0 0 Z " fill="#9519EE" transform="translate(170,149)"/>
<path d="M0 0 C1 3 1 3 0.22265625 4.90234375 C-0.35162109 5.90974609 -0.35162109 5.90974609 -0.9375 6.9375 C-2.75807592 10.14047933 -3 11.07836033 -3 15 C-3.66 15.66 -4.32 16.32 -5 17 C-3.68 17.66 -2.36 18.32 -1 19 C-1.99 19.99 -2.98 20.98 -4 22 C-3.67 22.99 -3.34 23.98 -3 25 C-4.96382007 26.50559539 -6.78263366 27.89131683 -9 29 C-9.433125 30.3303125 -9.433125 30.3303125 -9.875 31.6875 C-11.09249824 35.27235594 -12.9105104 37.8657656 -15 41 C-15 41.99 -15 42.98 -15 44 C-15.8046875 45.8671875 -15.8046875 45.8671875 -16.875 47.875 C-18.0772052 50.17011903 -19.112129 52.30835475 -20 54.75 C-21 57 -21 57 -22.875 58.8125 C-26.39571113 62.43676146 -29 66.89058578 -29 72 C-29.33 72.99 -29.66 73.98 -30 75 C-32.5625 76.1875 -32.5625 76.1875 -35 77 C-34.88986124 72.93695446 -34.75929135 68.87481333 -34.625 64.8125 C-34.5940625 63.66201172 -34.563125 62.51152344 -34.53125 61.32617188 C-34.49257812 60.21435547 -34.45390625 59.10253906 -34.4140625 57.95703125 C-34.3826416 56.93585205 -34.3512207 55.91467285 -34.31884766 54.86254883 C-33.98996168 51.90987806 -33.20278043 49.70083143 -32 47 C-31.855625 46.360625 -31.71125 45.72125 -31.5625 45.0625 C-30.77278908 42.16689329 -29.36175574 39.66904126 -28 37 C-27.70222656 36.21109375 -27.40445313 35.4221875 -27.09765625 34.609375 C-25.94756718 31.87535544 -24.55172592 29.62968775 -22.875 27.1875 C-22.06675781 26.00220703 -22.06675781 26.00220703 -21.2421875 24.79296875 C-20.83226563 24.20128906 -20.42234375 23.60960937 -20 23 C-20.99 22.34 -21.98 21.68 -23 21 C-22.67 19.35 -22.34 17.7 -22 16 C-22.66 15.67 -23.32 15.34 -24 15 C-22.54538684 12.09077367 -20.64479422 11.9851043 -17.625 10.875 C-10.95306897 8.21102754 -5.6025099 4.44451081 0 0 Z " fill="#AF24E1" transform="translate(138,148)"/>
<path d="M0 0 C1.1458996 3.4376988 0.82460706 4.43657057 -0.15234375 7.83984375 C-0.43005615 8.81050781 -0.70776855 9.78117187 -0.99389648 10.78125 C-1.30528564 11.8228125 -1.6166748 12.864375 -1.9375 13.9375 C-2.255979 15.01128906 -2.57445801 16.08507812 -2.90258789 17.19140625 C-7.75877716 33.18103846 -14.23894523 48.22097017 -22 63 C-22.99 63 -23.98 63 -25 63 C-24.84402344 62.44570312 -24.68804687 61.89140625 -24.52734375 61.3203125 C-24.23537109 60.23363281 -24.23537109 60.23363281 -23.9375 59.125 C-23.74027344 58.40570313 -23.54304687 57.68640625 -23.33984375 56.9453125 C-22.78867393 54.92726407 -22.78867393 54.92726407 -24 53 C-25.98 53.495 -25.98 53.495 -28 54 C-28 53.34 -28 52.68 -28 52 C-29.98 52.495 -29.98 52.495 -32 53 C-33.125 51.3125 -33.125 51.3125 -34 49 C-33.34742127 47.327767 -32.68132451 45.66072849 -32 44 C-32.66 43.01 -33.32 42.02 -34 41 C-33.34 40.01 -32.68 39.02 -32 38 C-32.66 37.67 -33.32 37.34 -34 37 C-33.01 37 -32.02 37 -31 37 C-30.855625 36.38125 -30.71125 35.7625 -30.5625 35.125 C-30 33 -30 33 -29 31 C-29.66 30.34 -30.32 29.68 -31 29 C-29.68 29 -28.36 29 -27 29 C-26.84144531 28.14728516 -26.84144531 28.14728516 -26.6796875 27.27734375 C-25.88999259 24.63141196 -24.70136127 22.82508819 -23.125 20.5625 C-21.37967478 18.04424504 -19.81418944 15.64981856 -18.375 12.9375 C-17.694375 11.9784375 -17.694375 11.9784375 -17 11 C-13 11 -9 11 -5 11 C-4.71125 10.195625 -4.4225 9.39125 -4.125 8.5625 C-3 6 -3 6 -1 5 C-0.34444881 2.47266765 -0.34444881 2.47266765 0 0 Z " fill="#8921EE" transform="translate(201,107)"/>
<path d="M0 0 C0.886875 0.495 1.77375 0.99 2.6875 1.5 C2.6875 5.37584415 1.11420599 6.44518042 -1.5045929 9.1089325 C-2.10764755 9.70591446 -2.71070221 10.30289642 -3.33203125 10.91796875 C-3.94640549 11.53521317 -4.56077972 12.15245758 -5.19377136 12.78840637 C-6.49569005 14.092368 -7.80141074 15.39254289 -9.1105957 16.68920898 C-11.11700382 18.67956779 -13.10693589 20.68539127 -15.09570312 22.69335938 C-16.36101836 23.95669222 -17.62726387 25.21909415 -18.89453125 26.48046875 C-19.7900042 27.38505074 -19.7900042 27.38505074 -20.7035675 28.3079071 C-24.9676201 32.5 -24.9676201 32.5 -28.3125 32.5 C-31.91379676 26.04767663 -32.1230205 19.785474 -31.3125 12.5 C-29.608317 6.82953395 -25.070814 2.78997117 -20.3125 -0.5 C-14.09233848 -2.57338717 -6.06873167 -2.6418298 0 0 Z " fill="#FD5D04" transform="translate(103.3125,83.5)"/>
<path d="M0 0 C4.93743818 2.22308223 8.38496071 5.78519192 12.25 9.5 C12.99507812 10.1703125 13.74015625 10.840625 14.5078125 11.53125 C19.75668232 16.60708015 19.75668232 16.60708015 20.48242188 20.76171875 C20.484375 23.53125 20.484375 23.53125 20 28 C15.05 28 10.1 28 5 28 C4.34 26.02 3.68 24.04 3 22 C-0.01779872 20.54839062 -0.01779872 20.54839062 -3 20 C-3 18.02 -3 16.04 -3 14 C-5.97 13.67 -8.94 13.34 -12 13 C-7.25 7.125 -7.25 7.125 -5 6 C-4.690625 5.360625 -4.38125 4.72125 -4.0625 4.0625 C-3 2 -3 2 0 0 Z " fill="#FE9605" transform="translate(113,115)"/>
<path d="M0 0 C3.43652178 5.15478267 2.33507369 10.97319245 1.1875 16.875 C0.48651161 20.21817538 -0.50601296 21.69634355 -3 24 C-3.309375 24.680625 -3.61875 25.36125 -3.9375 26.0625 C-5.28232014 28.51481908 -6.44687714 28.94871412 -9 30 C-9.7425 30.37125 -10.485 30.7425 -11.25 31.125 C-12.11625 31.558125 -12.11625 31.558125 -13 32 C-13.99 31.34 -14.98 30.68 -16 30 C-18.04869074 29.55570562 -20.11454293 29.18705805 -22.1875 28.875 C-23.27417969 28.70742187 -24.36085938 28.53984375 -25.48046875 28.3671875 C-26.31191406 28.24601562 -27.14335938 28.12484375 -28 28 C-26.948125 26.9790625 -26.948125 26.9790625 -25.875 25.9375 C-23.21737621 23.30246225 -20.86467629 20.47082828 -18.52734375 17.55078125 C-17 16 -17 16 -15.203125 15.16796875 C-11.84040315 13.38524919 -9.45646763 10.7045652 -6.8125 8 C-5.99362305 7.18015625 -5.99362305 7.18015625 -5.15820312 6.34375 C-2.22049968 3.44237893 -2.22049968 3.44237893 0 0 Z " fill="#FD7501" transform="translate(113,95)"/>
<path d="M0 0 C2.73516149 1.71645338 5.00707759 3.44266598 7 6 C7.62761911 9.54420206 7.34360242 12.36763157 7 16 C2.05 16 -2.9 16 -8 16 C-9 11 -9 11 -7.6875 8.6875 C-7.130625 8.130625 -6.57375 7.57375 -6 7 C-5.34 7 -4.68 7 -4 7 C-3.67 6.34 -3.34 5.68 -3 5 C-2.484375 4.505 -1.96875 4.01 -1.4375 3.5 C0.23063512 2.10560331 0.23063512 2.10560331 0 0 Z " fill="#FEAC02" transform="translate(126,127)"/>
<path d="M0 0 C0.33 0 0.66 0 1 0 C1.48658913 15.32755756 1.48658913 15.32755756 -2.515625 19.62890625 C-3.00546875 20.08136719 -3.4953125 20.53382812 -4 21 C-4.309375 21.680625 -4.61875 22.36125 -4.9375 23.0625 C-6.28232014 25.51481908 -7.44687714 25.94871412 -10 27 C-10.61875 27.433125 -11.2375 27.86625 -11.875 28.3125 C-14 29 -14 29 -17.25 27.625 C-18.1575 27.08875 -19.065 26.5525 -20 26 C-20 25.34 -20 24.68 -20 24 C-19.01 24 -18.02 24 -17 24 C-16.67 23.34 -16.34 22.68 -16 22 C-15.34 22 -14.68 22 -14 22 C-14 21.34 -14 20.68 -14 20 C-13.34 20 -12.68 20 -12 20 C-12 19.34 -12 18.68 -12 18 C-11.34 18 -10.68 18 -10 18 C-9.773125 17.443125 -9.54625 16.88625 -9.3125 16.3125 C-7.63575448 13.35823409 -5.45423315 11.33152149 -3 9 C-0.23776722 6.23776722 -0.42143709 3.79293383 0 0 Z " fill="#FD8107" transform="translate(114,98)"/>
<path d="M0 0 C2.5 0.25 2.5 0.25 4.5 2.25 C4.75 4.75 4.75 4.75 4.5 7.25 C2.5 9.25 2.5 9.25 0 9.5 C-2.5 9.25 -2.5 9.25 -4.5 7.25 C-4.75 4.75 -4.75 4.75 -4.5 2.25 C-2.5 0.25 -2.5 0.25 0 0 Z " fill="#E3DEF3" transform="translate(87.5,90.75)"/>
<path d="M0 0 C2 3 2 3 2 6 C-0.31944788 9.47917182 -2.26369964 10.29429766 -6 12 C-4 8 -2 4 0 0 Z " fill="#A836E4" transform="translate(148,133)"/>
<path d="M0 0 C3.78611227 0.54087318 5.55400767 2.11722332 8 5 C8 5.66 8 6.32 8 7 C8.66 7.33 9.32 7.66 10 8 C9.01 8.33 8.02 8.66 7 9 C4.03595495 6.19195732 1.55500981 3.81684226 0 0 Z " fill="#22C5EB" transform="translate(92,33)"/>
</svg>
