<?xml version="1.0" encoding="UTF-8"?>
<svg version="1.1" xmlns="http://www.w3.org/2000/svg" width="792" height="792">
<path d="M0 0 C52.56615 -1.24172008 99.17138695 33.96909499 137.59375 66.15625 C138.10357422 66.58115723 138.61339844 67.00606445 139.13867188 67.44384766 C146.79787919 73.83188401 154.2676979 80.38809365 161.59375 87.15625 C166.78850262 82.78100855 171.7441217 78.21945554 176.65625 73.53125 C216.28437 36.04484254 265.79537812 -0.86356204 322.85546875 -0.05859375 C344.17291239 0.63969891 364.37536255 9.27741077 379.21826172 24.6484375 C405.61481348 53.58438065 407.11995283 96.17868719 405.59375 133.15625 C404.75376666 150.42171642 402.39919461 167.48283098 399.65625 184.53125 C399.53513855 185.28572418 399.4140271 186.04019836 399.28924561 186.8175354 C397.46820794 198.02853837 395.15270343 209.09160569 392.59375 220.15625 C393.33608887 220.38175537 394.07842773 220.60726074 394.84326172 220.83959961 C439.4373301 234.42733624 484.80293254 249.00824794 520.59375 280.15625 C521.36847656 280.79820312 522.14320313 281.44015625 522.94140625 282.1015625 C528.95100584 287.19374466 533.78756431 292.93395603 538.59375 299.15625 C539.274375 299.99800781 539.955 300.83976562 540.65625 301.70703125 C544.81914203 307.06512861 548.00589925 312.61197121 550.90625 318.71875 C551.23181885 319.40275879 551.5573877 320.08676758 551.89282227 320.79150391 C552.85282364 322.89317575 553.73786352 325.01014659 554.59375 327.15625 C555.02965454 328.21682617 555.02965454 328.21682617 555.47436523 329.29882812 C558.14881582 336.77363569 558.0836085 344.36823347 558.03979492 352.20507812 C558.03128971 354.52043862 558.06011993 356.83331954 558.09179688 359.1484375 C558.1347511 368.18763894 557.21417329 375.73312083 553.59375 384.15625 C553.12453125 385.28160156 552.6553125 386.40695312 552.171875 387.56640625 C537.93791468 415.9924623 512.56557554 433.90700859 485.59375 449.15625 C484.9558252 449.52186035 484.31790039 449.8874707 483.66064453 450.26416016 C463.32236718 461.84442899 441.31781591 470.37456838 419.34375 478.28125 C418.19366959 478.69509949 418.19366959 478.69509949 417.02035522 479.11730957 C408.94275435 482.01204298 400.85778343 484.83151732 392.59375 487.15625 C392.80467285 487.93709961 393.0155957 488.71794922 393.23291016 489.52246094 C408.59583598 547.02298308 421.40568904 615.79199455 390.26049805 670.35083008 C383.88260751 680.99557285 375.8084895 690.04183079 365.59375 697.15625 C364.82804688 697.69765625 364.06234375 698.2390625 363.2734375 698.796875 C344.52820765 711.04623312 320.81155857 712.45587671 299.3515625 708.25 C256.93766622 699.00119365 220.24473837 671.5008552 187.59375 644.15625 C187.08924316 643.73666016 186.58473633 643.31707031 186.06494141 642.88476562 C177.32293136 635.61081861 168.64046933 628.20296933 160.59375 620.15625 C160.09037109 620.66486572 159.58699219 621.17348145 159.06835938 621.69750977 C156.74623022 624.04065728 154.4200223 626.37971602 152.09375 628.71875 C151.30226563 629.51861328 150.51078125 630.31847656 149.6953125 631.14257812 C144.82721145 636.03063041 139.83552127 640.67378115 134.59375 645.15625 C133.5453912 646.0816551 132.49843437 647.00865173 131.453125 647.9375 C116.54433402 661.0391648 100.55074712 672.84190448 83.59375 683.15625 C82.93987305 683.55537598 82.28599609 683.95450195 81.61230469 684.36572266 C51.35851575 702.62180066 15.55981162 713.46497648 -19.65234375 705.4140625 C-40.36494441 699.68450589 -56.74889756 686.66278384 -67.50024414 668.02661133 C-78.12154204 648.75837472 -82.50160135 626.84162648 -82.609375 604.98046875 C-82.61643463 604.02609421 -82.62349426 603.07171967 -82.63076782 602.08842468 C-82.74974512 581.23939671 -82.5643342 560.80610782 -79.40625 540.15625 C-79.18377354 538.6639457 -78.96162507 537.17159247 -78.73974609 535.67919922 C-78.00525762 530.77212443 -77.24423318 525.86950416 -76.46875 520.96875 C-76.34763855 520.20173767 -76.2265271 519.43472534 -76.10174561 518.64447021 C-74.35112523 507.68589952 -72.07862814 496.92653758 -69.40625 486.15625 C-70.3770752 485.92623291 -71.34790039 485.69621582 -72.34814453 485.45922852 C-82.149302 483.0973598 -91.72678152 480.30568012 -101.28125 477.09375 C-101.98769653 476.85736816 -102.69414307 476.62098633 -103.42199707 476.37744141 C-149.05422781 461.039821 -200.93932862 436.95282077 -224.47900391 392.11279297 C-230.62907932 379.59544064 -233.99042373 367.48051917 -233.90625 353.46875 C-233.89980469 352.3346167 -233.89335937 351.2004834 -233.88671875 350.03198242 C-233.31062465 323.34404403 -218.94253584 303.81429396 -200.35546875 285.796875 C-170.57172142 257.77370729 -129.29428363 242.26009277 -91.46875 228.46875 C-90.41533417 228.08396484 -90.41533417 228.08396484 -89.34063721 227.69140625 C-87.33457732 226.96169362 -85.32616472 226.23898769 -83.31640625 225.51953125 C-82.17308838 225.11001221 -81.02977051 224.70049316 -79.85180664 224.27856445 C-76.06301828 223.0444498 -72.28100444 222.08179004 -68.40625 221.15625 C-68.65793945 220.08068848 -68.90962891 219.00512695 -69.16894531 217.89697266 C-74.02019361 197.09344241 -78.83870501 176.38885812 -81.40625 155.15625 C-81.52049316 154.2389209 -81.63473633 153.3215918 -81.75244141 152.37646484 C-86.50159771 112.89866334 -85.12286956 65.50678461 -59.96875 32.40625 C-58.79097881 30.98148485 -57.60345411 29.56472542 -56.40625 28.15625 C-55.53419922 27.05023438 -55.53419922 27.05023438 -54.64453125 25.921875 C-42.78288905 11.49891384 -25.52296665 3.88851774 -7.53125 0.40625 C-5.02394448 0.19376648 -2.51396425 0.11531946 0 0 Z " fill="#012C4B" transform="translate(234.40625,55.84375)"/>
<path d="M0 0 C1.1116452 -0.0071553 2.22329041 -0.01431061 3.36862183 -0.02168274 C4.58891586 -0.02437164 5.8092099 -0.02706055 7.06648254 -0.02983093 C8.35129517 -0.03640213 9.63610779 -0.04297333 10.95985413 -0.04974365 C15.2230047 -0.07076914 19.48615557 -0.08114609 23.74934387 -0.09111023 C25.2186313 -0.09515865 26.68791854 -0.0992756 28.15720558 -0.10346031 C35.06206834 -0.12251037 41.96692043 -0.13674057 48.87180442 -0.14507228 C56.83298127 -0.15483791 64.79387959 -0.18114033 72.75495833 -0.22157317 C78.91390628 -0.25177579 85.07277459 -0.26654516 91.23179513 -0.26985329 C94.90754676 -0.2721995 98.58300077 -0.28110302 102.25867271 -0.30631447 C106.36405712 -0.33401812 110.46882298 -0.32975145 114.57429504 -0.32279968 C115.78446793 -0.33560974 116.99464081 -0.3484198 118.2414856 -0.36161804 C126.13208679 -0.31294723 131.47310239 0.70992153 137.70808411 5.8483429 C142.60411665 11.63943513 146.1411908 17.97478155 149.70637512 24.64717102 C151.02688126 27.0783018 152.35505227 29.50522102 153.68293762 31.93232727 C154.01561142 32.54250198 154.34828522 33.1526767 154.69104004 33.78134155 C157.87827053 39.61367057 161.21068208 45.35656966 164.58137512 51.08467102 C171.32182564 62.56451571 177.93544297 74.11423552 184.52458191 85.68122864 C187.0661414 90.14044608 189.62092205 94.59196291 192.17903137 99.04170227 C193.28790629 100.97301785 194.39652173 102.90448209 195.50502014 104.83601379 C196.21775455 106.07670112 196.931406 107.31686212 197.64601135 108.55647278 C198.63601833 110.27410481 199.62245345 111.99379411 200.60871887 113.71357727 C201.17195862 114.69270081 201.73519836 115.67182434 202.31550598 116.68061829 C205.08410131 121.82142303 205.51037053 126.42830135 204.64387512 132.14717102 C200.7084264 142.81321048 193.90040192 152.59873251 188.09700012 162.31513977 C184.73546035 167.96203613 181.48718393 173.667711 178.26887512 179.39717102 C173.03716892 188.70238317 167.74118642 197.96810816 162.38850403 207.20429993 C159.44215555 212.28916392 156.5052337 217.37820211 153.61784363 222.49676514 C152.6129424 224.27729754 151.60430073 226.05565937 150.59455872 227.83345032 C149.33229323 230.05860793 148.07693474 232.28770393 146.82991028 234.5214386 C137.63384127 250.67298175 137.63384127 250.67298175 128.64387512 254.14717102 C124.36069372 254.60482011 120.09323955 254.57744219 115.78889465 254.5670929 C114.49389038 254.57556244 113.19888611 254.58403198 111.86463928 254.59275818 C108.32319034 254.61492215 104.78197442 254.61790744 101.24046564 254.61601067 C98.27838651 254.61589072 95.31635631 254.62446479 92.35429084 254.63278818 C85.36273214 254.65200411 78.37129283 254.65491282 71.37971497 254.64814758 C64.18023955 254.64150903 56.98127676 254.66436731 49.78190529 254.70146132 C43.5888993 254.73220584 37.3960578 254.7435132 31.20297706 254.7396245 C27.5093534 254.73756175 23.81612869 254.74296196 20.12257767 254.76751709 C16.00059076 254.79401668 11.87967914 254.78002038 7.75764465 254.7624054 C6.54283417 254.77566864 5.32802368 254.78893188 4.07640076 254.80259705 C-4.75179821 254.71501383 -9.71753547 252.77475108 -15.93815613 246.57295227 C-19.53183107 241.86684228 -22.21597182 236.51805481 -25.04362488 231.33467102 C-26.29350923 229.07216849 -27.54481523 226.81045075 -28.79753113 224.54951477 C-29.40612976 223.44978333 -30.01472839 222.35005188 -30.64176941 221.21699524 C-32.86223154 217.24090711 -35.15363385 213.31130459 -37.48112488 209.39717102 C-41.03562882 203.40667791 -44.53003328 197.38538276 -47.98112488 191.33467102 C-48.71673645 190.04520569 -48.71673645 190.04520569 -49.46720886 188.72969055 C-51.74858132 184.72780261 -54.02756477 180.72455802 -56.30583191 176.72090149 C-58.38340029 173.07035707 -60.46304814 169.42100157 -62.54362488 165.77217102 C-63.05838379 164.8688504 -63.05838379 164.8688504 -63.58354187 163.94728088 C-68.18967036 155.86866788 -72.86893439 147.84553554 -77.75456238 139.93232727 C-81.19759641 133.94480712 -82.49759217 129.00525499 -81.35612488 122.14717102 C-79.53468402 117.19947531 -76.97578265 112.70483582 -74.35612488 108.14717102 C-73.63948669 106.89806946 -73.63948669 106.89806946 -72.90837097 105.62373352 C-70.04103499 100.64976518 -67.14065867 95.6958124 -64.22721863 90.74873352 C-60.25601426 83.99657653 -56.36095286 77.20212042 -52.48112488 70.39717102 C-51.81034189 69.22185861 -51.1395247 68.04656571 -50.46867371 66.87129211 C-47.73648511 62.08313273 -45.0072096 57.29332383 -42.28288269 52.50068665 C-38.27188097 45.44468331 -34.24906188 38.3958611 -30.201828 31.36054993 C-29.00345771 29.27418091 -27.80920169 27.18544135 -26.61979675 25.09394836 C-25.04641613 22.33217311 -23.45432956 19.58213485 -21.85612488 16.83467102 C-21.41236511 16.04705383 -20.96860535 15.25943665 -20.51139832 14.44795227 C-15.66697633 6.22361711 -9.93640013 0.04388345 0 0 Z " fill="#E10396" transform="translate(335.3561248779297,281.8528289794922)"/>
<path d="M0 0 C2.9375 2.5 2.9375 2.5 5 5 C5.33 5.33 5.66 5.66 6 6 C7.53704946 14.91488684 3.02646874 20.53237907 -1.5625 27.69775391 C-4.24220012 31.98946112 -6.70723303 36.40351093 -9.1875 40.8125 C-9.73921875 41.79275146 -10.2909375 42.77300293 -10.859375 43.78295898 C-39.80560459 95.40567148 -66.01834032 149.23386777 -85.61914062 205.16772461 C-88.30089505 212.58088335 -88.30089505 212.58088335 -92 215 C-98.30270841 216.7462219 -103.38920756 215.75782868 -109.375 213.5 C-110.14900146 213.22373779 -110.92300293 212.94747559 -111.72045898 212.6628418 C-113.34606735 212.07949578 -114.96871324 211.48783204 -116.58837891 210.88818359 C-118.88789923 210.04128595 -121.19657825 209.22882824 -123.51171875 208.42578125 C-161.93109095 194.93000092 -212.71524147 174.95630869 -232.28125 136.48046875 C-236.88540123 126.56510021 -238.00252235 114.6960602 -234.375 104.25 C-233.6218453 102.48308344 -232.82972541 100.73227938 -232 99 C-231.59910156 98.12085938 -231.19820312 97.24171875 -230.78515625 96.3359375 C-218.92521956 72.47855762 -194.92607557 56.9445876 -172 45 C-171.31728027 44.64228516 -170.63456055 44.28457031 -169.93115234 43.91601562 C-126.05539959 21.26128164 -74.4740307 9.3977109 -25.9375 1.875 C-23.800764 1.53917227 -21.66404468 1.2032383 -19.52734375 0.8671875 C-18.55514893 0.71620605 -17.5829541 0.56522461 -16.58129883 0.40966797 C-14.55302105 0.08776784 -12.52935478 -0.26320272 -10.5078125 -0.625 C-6.83283344 -1.17452958 -3.5644587 -1.10014157 0 0 Z " fill="#FE4053" transform="translate(266,291)"/>
<path d="M0 0 C0.86657227 0.31163086 1.73314453 0.62326172 2.62597656 0.94433594 C5.35840363 1.93249326 8.0854545 2.93460053 10.8125 3.9375 C11.66602051 4.24606934 12.51954102 4.55463867 13.39892578 4.87255859 C44.6651614 16.19133219 77.01810168 30.27882375 101.8125 52.9375 C103.07900391 54.08025391 103.07900391 54.08025391 104.37109375 55.24609375 C113.35306504 63.74337182 122.0956559 76.01196627 123.015625 88.75 C123.30409064 108.36566381 115.04590477 123.05823282 101.8125 136.9375 C94.50447465 144.31966473 86.44799219 150.24836061 77.8125 155.9375 C77.00039063 156.50855469 76.18828125 157.07960938 75.3515625 157.66796875 C61.45609757 167.13397317 45.30430695 173.51957973 29.75 179.6875 C28.68918213 180.11063477 27.62836426 180.53376953 26.53540039 180.96972656 C9.00542393 187.77416853 -9.01194479 192.88692914 -27.25634766 197.37280273 C-30.32034045 198.12692973 -33.38096627 198.89370517 -36.44140625 199.66210938 C-54.35082055 204.12765954 -72.3382454 207.77820634 -90.5625 210.6875 C-91.91409751 210.90994364 -93.26566001 211.13260011 -94.6171875 211.35546875 C-95.90625 211.56300781 -97.1953125 211.77054688 -98.5234375 211.984375 C-100.23345947 212.26039551 -100.23345947 212.26039551 -101.97802734 212.54199219 C-110.07008078 213.53918727 -110.07008078 213.53918727 -114.4375 211.1875 C-118.36211554 207.97645093 -118.99810295 206.48950364 -119.609375 201.48046875 C-119.5427164 195.44718502 -116.17062297 190.97079385 -113.0625 186 C-111.76242823 183.84489184 -110.46430657 181.68860626 -109.16796875 179.53125 C-108.50200684 178.43296875 -107.83604492 177.3346875 -107.14990234 176.203125 C-95.20070662 156.31852162 -84.60062895 135.65584982 -74.1875 114.9375 C-73.8751239 114.31617188 -73.5627478 113.69484375 -73.24090576 113.0546875 C-57.87060628 82.41886503 -44.72915023 50.84886204 -32.296875 18.92578125 C-32.02048691 18.21639404 -31.74409882 17.50700684 -31.45933533 16.77612305 C-30.28589963 13.76300177 -29.11483008 10.74909492 -27.95117188 7.73217773 C-27.60119141 6.83571533 -27.25121094 5.93925293 -26.890625 5.015625 C-26.60348633 4.27344727 -26.31634766 3.53126953 -26.02050781 2.76660156 C-24.53731863 -0.49015499 -22.6518113 -2.38264118 -19.4375 -3.875 C-12.57130192 -4.44718317 -6.34511449 -2.32138335 0 0 Z " fill="#FE4053" transform="translate(641.1875,319.0625)"/>
<path d="M0 0 C5.06366013 4.0873335 7.68852593 9.40869909 10.75 15.0625 C24.55969231 39.94894393 39.87060582 63.70464646 55.82104492 87.25726318 C57.48461046 89.71635341 59.14015791 92.18082381 60.796875 94.64453125 C77.50201966 119.38474918 95.55878802 143.55442664 114.71484375 166.45703125 C115.35276855 167.22176758 115.99069336 167.98650391 116.64794922 168.77441406 C117.89480894 170.26454022 119.14746689 171.74983996 120.40673828 173.22949219 C124.08417439 177.61906009 126.63313551 181.12622816 127.375 186.9375 C126.57027679 193.50940623 121.62123516 197.54859675 116.75 201.5625 C116.13866211 202.07498291 115.52732422 202.58746582 114.89746094 203.11547852 C112.93837273 204.75193714 110.9693743 206.3759433 109 208 C107.71864084 209.07018181 106.4373904 210.14049381 105.15625 211.2109375 C95.43329541 219.27650079 85.34349004 226.75218066 75 234 C74.37303223 234.4444043 73.74606445 234.88880859 73.10009766 235.34667969 C57.26678775 246.52667219 40.37722988 255.79238164 22 262 C21.11699219 262.35578125 20.23398437 262.7115625 19.32421875 263.078125 C8.39389428 267.4135142 -6.9500523 268.15777496 -18.125 264.375 C-34.54573661 257.07689484 -43.36548152 244.25698587 -49.78173828 228.02197266 C-68.6043995 177.45913761 -52.50759178 114.77590372 -36.80126953 65.55859375 C-36.06051911 63.1932481 -35.36126443 60.82156939 -34.68359375 58.4375 C-31.57359012 47.53663789 -27.96727371 36.81302283 -24.25518799 26.10479736 C-23.67182641 24.41984073 -23.09166706 22.73377176 -22.51483154 21.04656982 C-21.69478855 18.65357886 -20.8610759 16.26578673 -20.0234375 13.87890625 C-19.77875732 13.1588591 -19.53407715 12.43881195 -19.28198242 11.69694519 C-17.47791408 6.62835965 -15.43475846 2.48790795 -10.75 -0.375 C-7.03423944 -1.21949104 -3.59996051 -1.3568033 0 0 Z " fill="#FE4053" transform="translate(241,466)"/>
<path d="M0 0 C14.89348982 10.86095648 22.07394119 27.94844473 26.3125 45.375 C26.47621094 46.04708496 26.63992188 46.71916992 26.80859375 47.41162109 C37.49851113 94.20209625 23.31438716 146.52958215 9.8125 191.25 C9.56082062 192.08787048 9.30914124 192.92574097 9.04983521 193.78900146 C5.03803593 207.11302835 0.7502025 220.33325158 -3.75 233.5 C-4.16596436 234.72127594 -4.16596436 234.72127594 -4.59033203 235.96722412 C-5.37864402 238.27446869 -6.17394364 240.57915012 -6.97265625 242.8828125 C-7.20344376 243.55604553 -7.43423126 244.22927856 -7.67201233 244.9229126 C-11.89757035 256.98003518 -11.89757035 256.98003518 -18.6875 260.375 C-22.27700518 260.81581643 -24.69029963 260.76993084 -28.0546875 259.4375 C-32.01852993 256.33229406 -33.88773338 252.32467892 -36.25 247.9375 C-37.31193757 246.02370381 -38.37578833 244.11096814 -39.44140625 242.19921875 C-39.98039551 241.22645996 -40.51938477 240.25370117 -41.07470703 239.25146484 C-45.41457739 231.51117532 -50.05782118 223.9443062 -54.6875 216.375 C-55.11869141 215.66891602 -55.54988281 214.96283203 -55.99414062 214.23535156 C-63.26807747 202.38587381 -70.98663334 190.82413978 -78.6875 179.25 C-79.44142029 178.11510132 -79.44142029 178.11510132 -80.21057129 176.95727539 C-90.0239696 162.19757873 -100.03666675 147.59373636 -110.875 133.5625 C-112.24775802 131.77371539 -113.62015674 129.98465499 -114.9921875 128.1953125 C-115.6325293 127.36161133 -116.27287109 126.52791016 -116.93261719 125.66894531 C-119.14583519 122.77587404 -121.32571155 119.85993071 -123.5 116.9375 C-129.62252732 108.75872766 -135.90612997 100.710784 -142.4296875 92.84765625 C-143.38065308 91.70139771 -143.38065308 91.70139771 -144.35083008 90.53198242 C-145.5941766 89.03801662 -146.84127365 87.54716232 -148.0925293 86.05981445 C-148.66140869 85.37749756 -149.23028809 84.69518066 -149.81640625 83.9921875 C-150.32244385 83.39003418 -150.82848145 82.78788086 -151.34985352 82.16748047 C-154.52705944 77.90994334 -155.24096837 74.72519422 -154.6875 69.375 C-151.99224606 64.62284173 -148.61012575 61.25074832 -144.4375 57.8125 C-143.82616211 57.30001709 -143.21482422 56.78753418 -142.58496094 56.25952148 C-140.62587273 54.62306286 -138.6568743 52.9990567 -136.6875 51.375 C-135.40614084 50.30481819 -134.1248904 49.23450619 -132.84375 48.1640625 C-123.12196504 40.09946947 -113.0381858 32.61079769 -102.6875 25.375 C-102.0392627 24.91996094 -101.39102539 24.46492188 -100.72314453 23.99609375 C-82.03561541 10.95715127 -61.95151479 -0.21178856 -39.6875 -5.625 C-38.90890625 -5.81707031 -38.1303125 -6.00914063 -37.328125 -6.20703125 C-24.20011136 -8.28498607 -11.48480362 -6.94613552 0 0 Z " fill="#FE4053" transform="translate(580.6875,96.625)"/>
<path d="M0 0 C5.76106447 5.87067221 6.30200563 16.68473812 7.5 24.4375 C7.66733643 25.49984863 7.83467285 26.56219727 8.00708008 27.65673828 C9.83923361 39.7075776 11.06838515 51.82405864 12.20166016 63.95800781 C12.38862966 65.94276105 12.58478106 67.92669417 12.79443359 69.90917969 C15.71703257 98.50552515 15.64381226 134.91899929 -3.4453125 158.53125 C-12.87531258 168.44199518 -24.51460359 173.11135575 -38.14282227 173.54931641 C-90.37399201 173.84939973 -135.18090721 132.12273298 -170.09375 97.625 C-172.06550929 95.66967747 -174.0332934 93.71040306 -176 91.75 C-176.93199219 90.82268066 -177.86398437 89.89536133 -178.82421875 88.93994141 C-183.36950221 84.38399981 -187.7853125 79.77947539 -191.97558594 74.89453125 C-194.20839425 72.30269995 -196.5433017 69.81574967 -198.875 67.3125 C-203.11296433 62.72608083 -207.11562622 58.00293632 -211.02734375 53.1328125 C-214.6326177 48.74725019 -218.38735287 44.49311627 -222.15966797 40.25073242 C-222.69350098 39.64334229 -223.22733398 39.03595215 -223.77734375 38.41015625 C-224.25421631 37.87269775 -224.73108887 37.33523926 -225.22241211 36.78149414 C-228.35652464 32.71786839 -228.92754203 29.34525117 -228.828125 24.31640625 C-228.3403466 21.05874338 -226.85595915 19.34237332 -224.5 17.125 C-221.89316667 15.82158334 -219.91547548 15.95218202 -216.99536133 15.89135742 C-215.24672035 15.85051781 -215.24672035 15.85051781 -213.4627533 15.80885315 C-212.18211502 15.7829863 -210.90147675 15.75711945 -209.58203125 15.73046875 C-207.53403384 15.68254869 -205.48609648 15.6324493 -203.43815327 15.58227062 C-201.98986627 15.54684396 -200.54156705 15.51191376 -199.09325695 15.47744465 C-155.07998153 14.42847701 -111.13530818 12.24944395 -67.5 6.125 C-66.01128723 5.9198351 -64.5225153 5.71509916 -63.03369141 5.51074219 C-49.32642649 3.62533354 -35.62592311 1.72550161 -22 -0.6875 C-6.31216824 -3.3815187 -6.31216824 -3.3815187 0 0 Z " fill="#FE4053" transform="translate(596.5,554.875)"/>
<path d="M0 0 C4.78069148 3.52757083 9.41784286 7.21934678 14 11 C14.54994629 11.4522998 15.09989258 11.90459961 15.66650391 12.37060547 C28.6898956 23.12607143 40.84760777 34.68002494 52.76538086 46.63500977 C54.82357157 48.69860061 56.8871098 50.75673675 58.95117188 52.81445312 C60.28677934 54.1507209 61.62207684 55.48729857 62.95703125 56.82421875 C63.56134476 57.42650803 64.16565826 58.0287973 64.7882843 58.64933777 C68.50256141 62.38375308 72.02687579 66.24009717 75.46687317 70.22875977 C77.55184154 72.6375493 79.71335292 74.97253523 81.875 77.3125 C85.95184646 81.7828882 89.82321365 86.37374698 93.62109375 91.08203125 C96.83824386 95.02819074 100.14188402 98.89868896 103.45874023 102.76123047 C107.58843924 107.60068658 108.39575438 110.22199173 108.359375 116.515625 C108 119 108 119 105.625 122.0625 C101.82976166 124.86374735 99.92875007 125.14049747 95.24829102 125.23364258 C94.02972916 125.26086899 92.8111673 125.2880954 91.55567932 125.31614685 C90.89789553 125.32878508 90.24011173 125.3414233 89.5623951 125.3544445 C86.7443047 125.40932363 83.92654183 125.47634391 81.10870266 125.54272938 C79.60421551 125.57814235 78.09971694 125.61307323 76.59520817 125.64755535 C44.6213528 126.38187761 12.84677517 127.93589505 -19 131 C-19.8682843 131.08227844 -20.7365686 131.16455688 -21.63116455 131.24932861 C-49.35165775 133.87960554 -76.99227649 137.44585675 -104.37890625 142.51953125 C-115.40714548 143.98282513 -115.40714548 143.98282513 -119.9375 141.1875 C-123.66193381 137.23734292 -124.49253486 134.23631543 -125.40234375 128.96484375 C-125.52475937 128.26381531 -125.64717499 127.56278687 -125.77330017 126.84051514 C-126.17101323 124.54103176 -126.55600318 122.23972694 -126.9375 119.9375 C-127.06972961 119.14292389 -127.20195923 118.34834778 -127.3381958 117.5296936 C-128.13291531 112.73046743 -128.90513758 107.92799366 -129.66290283 103.12280273 C-129.95833078 101.26240367 -130.26329665 99.40352436 -130.56982422 97.54492188 C-133.03761631 82.25003464 -133.30388284 67.0218616 -133.375 51.5625 C-133.3830365 50.58630707 -133.391073 49.61011414 -133.39935303 48.6043396 C-133.5547122 23.7460867 -131.35810858 -1.84163165 -113.41796875 -20.7734375 C-81.19197002 -50.44842825 -28.60107598 -20.61277924 0 0 Z " fill="#FE4053" transform="translate(322,122)"/>
<path d="M0 0 C1.1116452 -0.0071553 2.22329041 -0.01431061 3.36862183 -0.02168274 C4.58891586 -0.02437164 5.8092099 -0.02706055 7.06648254 -0.02983093 C8.35129517 -0.03640213 9.63610779 -0.04297333 10.95985413 -0.04974365 C15.2230047 -0.07076914 19.48615557 -0.08114609 23.74934387 -0.09111023 C25.2186313 -0.09515865 26.68791854 -0.0992756 28.15720558 -0.10346031 C35.06206834 -0.12251037 41.96692043 -0.13674057 48.87180442 -0.14507228 C56.83298127 -0.15483791 64.79387959 -0.18114033 72.75495833 -0.22157317 C78.91390628 -0.25177579 85.07277459 -0.26654516 91.23179513 -0.26985329 C94.90754676 -0.2721995 98.58300077 -0.28110302 102.25867271 -0.30631447 C106.36405712 -0.33401812 110.46882298 -0.32975145 114.57429504 -0.32279968 C115.78446793 -0.33560974 116.99464081 -0.3484198 118.2414856 -0.36161804 C126.13208679 -0.31294723 131.47310239 0.70992153 137.70808411 5.8483429 C142.60411665 11.63943513 146.1411908 17.97478155 149.70637512 24.64717102 C151.02688126 27.0783018 152.35505227 29.50522102 153.68293762 31.93232727 C154.01561142 32.54250198 154.34828522 33.1526767 154.69104004 33.78134155 C157.87827053 39.61367057 161.21068208 45.35656966 164.58137512 51.08467102 C171.32182564 62.56451571 177.93544297 74.11423552 184.52458191 85.68122864 C187.0661414 90.14044608 189.62092205 94.59196291 192.17903137 99.04170227 C193.28790629 100.97301785 194.39652173 102.90448209 195.50502014 104.83601379 C196.21775455 106.07670112 196.931406 107.31686212 197.64601135 108.55647278 C198.63601833 110.27410481 199.62245345 111.99379411 200.60871887 113.71357727 C201.17195862 114.69270081 201.73519836 115.67182434 202.31550598 116.68061829 C205.08410131 121.82142303 205.51037053 126.42830135 204.64387512 132.14717102 C200.7084264 142.81321048 193.90040192 152.59873251 188.09700012 162.31513977 C184.73546035 167.96203613 181.48718393 173.667711 178.26887512 179.39717102 C173.03716892 188.70238317 167.74118642 197.96810816 162.38850403 207.20429993 C159.44215555 212.28916392 156.5052337 217.37820211 153.61784363 222.49676514 C152.6129424 224.27729754 151.60430073 226.05565937 150.59455872 227.83345032 C149.33229323 230.05860793 148.07693474 232.28770393 146.82991028 234.5214386 C137.63384127 250.67298175 137.63384127 250.67298175 128.64387512 254.14717102 C124.36069372 254.60482011 120.09323955 254.57744219 115.78889465 254.5670929 C114.49389038 254.57556244 113.19888611 254.58403198 111.86463928 254.59275818 C108.32319034 254.61492215 104.78197442 254.61790744 101.24046564 254.61601067 C98.27838651 254.61589072 95.31635631 254.62446479 92.35429084 254.63278818 C85.36273214 254.65200411 78.37129283 254.65491282 71.37971497 254.64814758 C64.18023955 254.64150903 56.98127676 254.66436731 49.78190529 254.70146132 C43.5888993 254.73220584 37.3960578 254.7435132 31.20297706 254.7396245 C27.5093534 254.73756175 23.81612869 254.74296196 20.12257767 254.76751709 C16.00059076 254.79401668 11.87967914 254.78002038 7.75764465 254.7624054 C6.54283417 254.77566864 5.32802368 254.78893188 4.07640076 254.80259705 C-4.75179821 254.71501383 -9.71753547 252.77475108 -15.93815613 246.57295227 C-19.53183107 241.86684228 -22.21597182 236.51805481 -25.04362488 231.33467102 C-26.29350923 229.07216849 -27.54481523 226.81045075 -28.79753113 224.54951477 C-29.40612976 223.44978333 -30.01472839 222.35005188 -30.64176941 221.21699524 C-32.86223154 217.24090711 -35.15363385 213.31130459 -37.48112488 209.39717102 C-41.03562882 203.40667791 -44.53003328 197.38538276 -47.98112488 191.33467102 C-48.71673645 190.04520569 -48.71673645 190.04520569 -49.46720886 188.72969055 C-51.74858132 184.72780261 -54.02756477 180.72455802 -56.30583191 176.72090149 C-58.38340029 173.07035707 -60.46304814 169.42100157 -62.54362488 165.77217102 C-63.05838379 164.8688504 -63.05838379 164.8688504 -63.58354187 163.94728088 C-68.18967036 155.86866788 -72.86893439 147.84553554 -77.75456238 139.93232727 C-81.19759641 133.94480712 -82.49759217 129.00525499 -81.35612488 122.14717102 C-79.53468402 117.19947531 -76.97578265 112.70483582 -74.35612488 108.14717102 C-73.63948669 106.89806946 -73.63948669 106.89806946 -72.90837097 105.62373352 C-70.04103499 100.64976518 -67.14065867 95.6958124 -64.22721863 90.74873352 C-60.25601426 83.99657653 -56.36095286 77.20212042 -52.48112488 70.39717102 C-51.81034189 69.22185861 -51.1395247 68.04656571 -50.46867371 66.87129211 C-47.73648511 62.08313273 -45.0072096 57.29332383 -42.28288269 52.50068665 C-38.27188097 45.44468331 -34.24906188 38.3958611 -30.201828 31.36054993 C-29.00345771 29.27418091 -27.80920169 27.18544135 -26.61979675 25.09394836 C-25.04641613 22.33217311 -23.45432956 19.58213485 -21.85612488 16.83467102 C-21.41236511 16.04705383 -20.96860535 15.25943665 -20.51139832 14.44795227 C-15.66697633 6.22361711 -9.93640013 0.04388345 0 0 Z M44.08137512 27.20967102 C41.50057578 32.3712697 42.34080674 38.54882447 42.64387512 44.14717102 C41.80985168 44.38693665 40.97582825 44.62670227 40.11653137 44.87373352 C36.10352653 46.3453191 32.72001549 48.30787254 29.08137512 50.52217102 C27.58563576 51.41078864 26.08952362 52.298779 24.59309387 53.18623352 C22.01794343 54.72243494 19.44792499 56.2661073 16.88459778 57.82197571 C14.06388035 59.53018167 11.23001163 61.21472135 8.39387512 62.89717102 C7.50111877 63.44679504 6.60836243 63.99641907 5.68855286 64.56269836 C4.84365295 65.05979309 3.99875305 65.55688782 3.12825012 66.06904602 C2.01014954 66.74338684 2.01014954 66.74338684 0.86946106 67.43135071 C-1.35612488 68.14717102 -1.35612488 68.14717102 -3.96061707 67.37861633 C-5.72154106 66.47338798 -7.45423572 65.51270698 -9.16862488 64.52217102 C-14.37483701 62.27635402 -19.09415437 62.56115853 -24.41862488 64.14717102 C-30.14343717 66.51839505 -33.77524003 71.39780607 -36.79362488 76.64717102 C-38.39947919 83.78430129 -37.36818586 88.5096992 -33.91862488 94.86982727 C-31.48966462 98.41003685 -29.12699025 100.09033536 -25.35612488 102.14717102 C-24.03612488 102.14717102 -22.71612488 102.14717102 -21.35612488 102.14717102 C-21.68612488 119.63717102 -22.01612488 137.12717102 -22.35612488 155.14717102 C-26.31612488 157.12717102 -26.31612488 157.12717102 -30.35612488 159.14717102 C-35.07038015 163.98548564 -36.6639261 168.7727553 -36.85612488 175.45967102 C-36.76663367 181.1104014 -35.83777391 184.34902884 -32.07878113 188.56123352 C-27.9000421 192.4083266 -23.98003696 194.94137399 -18.16862488 195.39717102 C-12.95361995 195.05520348 -8.12343457 193.91448071 -4.35612488 190.14717102 C-0.35529336 190.49246817 2.61486584 192.03309997 6.07356262 193.99092102 C7.10988831 194.57406067 8.14621399 195.15720032 9.21394348 195.75801086 C10.30457092 196.38143372 11.39519836 197.00485657 12.51887512 197.64717102 C13.63335022 198.27703918 14.74782532 198.90690735 15.89607239 199.55586243 C22.80132649 203.47412749 29.66357995 207.458929 36.40315247 211.65693665 C39.30516534 213.57131367 39.30516534 213.57131367 42.64387512 214.14717102 C42.59746887 215.01599915 42.55106262 215.88482727 42.50325012 216.77998352 C42.21499941 223.88290857 42.21499941 223.88290857 44.20637512 230.58467102 C51.43601453 238.19284557 51.43601453 238.19284557 61.26887512 240.52217102 C67.42272282 240.4485604 71.09043252 239.26550689 75.64387512 235.14717102 C76.24457825 234.61221008 76.84528137 234.07724915 77.46418762 233.52607727 C81.52353739 229.13631531 82.00689659 225.58253569 82.01887512 219.64717102 C81.92322098 217.47901057 81.80800284 215.31122544 81.64387512 213.14717102 C82.47789856 212.9074054 83.311922 212.66763977 84.17121887 212.42060852 C88.18416718 210.94904367 91.56788037 208.98664389 95.20637512 206.77217102 C96.70075931 205.88346464 98.19557224 204.99547891 99.69075012 204.10810852 C102.27057717 202.56880473 104.84713936 201.02451157 107.41926575 199.47236633 C110.25634228 197.76567237 113.1052639 196.08028863 115.95637512 194.39717102 C116.85751038 193.847547 117.75864563 193.29792297 118.68708801 192.73164368 C119.53521057 192.23454895 120.38333313 191.73745422 121.25715637 191.22529602 C122.00779358 190.77573547 122.75843079 190.32617493 123.53181458 189.86299133 C125.64387512 189.14717102 125.64387512 189.14717102 127.76887512 189.91743469 C129.19440613 190.85238257 130.61391936 191.79651324 132.03059387 192.74482727 C137.16340362 195.499205 143.56379367 195.07268823 149.06184387 193.42060852 C153.33087361 191.4502871 156.00521281 189.10516448 158.64387512 185.14717102 C159.30387512 184.15717102 159.96387512 183.16717102 160.64387512 182.14717102 C161.43438133 175.42786828 161.50486295 168.74113439 157.98762512 162.79951477 C154.91374369 159.01971289 151.22841346 156.67535047 146.64387512 155.14717102 C146.31387512 137.65717102 145.98387512 120.16717102 145.64387512 102.14717102 C148.11887512 101.65217102 148.11887512 101.65217102 150.64387512 101.14717102 C156.90031979 98.14929128 159.39867176 93.47195665 161.64387512 87.14717102 C162.72740898 81.96505258 161.49810221 77.587459 158.98762512 73.04170227 C156.04972558 68.89960553 152.46583314 65.75449036 147.64387512 64.14717102 C139.64525485 63.4878253 134.33925338 63.73107047 127.64387512 68.14717102 C124.1416317 67.76640198 121.34466811 66.01051655 118.31184387 64.30342102 C117.27229553 63.72028137 116.23274719 63.13714172 115.16169739 62.53633118 C113.51318787 61.6011969 113.51318787 61.6011969 111.83137512 60.64717102 C110.1528949 59.70236877 110.1528949 59.70236877 108.44050598 58.73847961 C101.51523252 54.82473792 94.63704726 50.84384561 87.88484192 46.6374054 C84.98266721 44.72308924 84.98266721 44.72308924 81.64387512 44.14717102 C81.7134845 43.31314758 81.78309387 42.47912415 81.85481262 41.61982727 C82.19747877 34.49726671 81.91006859 29.64672947 77.39387512 23.95967102 C72.60802366 19.0028963 69.02748504 17.89196691 62.26887512 17.52217102 C53.96154224 17.79940077 49.30669005 20.96478245 44.08137512 27.20967102 Z " fill="#FED74C" transform="translate(335.3561248779297,281.8528289794922)"/>
<path d="M0 0 C4.12096324 -0.54012625 7.89553518 -0.74318308 12 0 C14.9516002 2.47549873 16.32324105 5.57760759 18 9 C19.1037525 10.8897125 20.21754088 12.77358907 21.33984375 14.65234375 C22.54212106 16.74564213 23.74119131 18.84078487 24.9375 20.9375 C25.92992138 22.6673456 26.92234765 24.39718843 27.91506958 26.12686157 C28.93764091 27.90939872 29.95890134 29.69268197 30.97998047 31.47607422 C34.13969887 36.99189744 37.32100681 42.49527164 40.5 48 C44.32484076 54.6263094 48.14706009 61.25409198 51.9609375 67.88671875 C52.61199463 69.01770996 53.26305176 70.14870117 53.93383789 71.31396484 C55.21086705 73.53330694 56.48614463 75.75365799 57.75952148 77.97509766 C60.44086026 82.63807689 63.13993257 87.27553354 66.01171875 91.82421875 C66.4495166 92.52264893 66.88731445 93.2210791 67.33837891 93.94067383 C68.12445026 95.18280452 68.92388779 96.41663201 69.73974609 97.6394043 C70.75390625 99.2421875 70.75390625 99.2421875 72 102 C71.40234375 103.9453125 71.40234375 103.9453125 70 106 C69.01 108.31 68.02 110.62 67 113 C27.07 113 -12.86 113 -54 113 C-54.99 110.69 -55.98 108.38 -57 106 C-57.44013428 105.29311035 -57.88026855 104.5862207 -58.33374023 103.85791016 C-59 102 -59 102 -58.17993164 99.75537109 C-57.67840576 98.93633301 -57.17687988 98.11729492 -56.66015625 97.2734375 C-56.09949463 96.33773926 -55.53883301 95.40204102 -54.96118164 94.43798828 C-54.02133423 92.92180908 -54.02133423 92.92180908 -53.0625 91.375 C-51.74900979 89.19330419 -50.43654356 87.01099162 -49.125 84.828125 C-48.44050781 83.69955078 -47.75601562 82.57097656 -47.05078125 81.40820312 C-43.81129824 76.02449089 -40.68867357 70.57502187 -37.5625 65.125 C-36.30376548 62.93988519 -35.04464864 60.75499057 -33.78515625 58.5703125 C-33.16012207 57.48524414 -32.53508789 56.40017578 -31.89111328 55.28222656 C-28.76319852 49.85340058 -25.63141635 44.42680671 -22.5 39 C-21.26951242 36.86719836 -20.03904375 34.73438582 -18.80859375 32.6015625 C-12.5390625 21.734375 -6.26953125 10.8671875 0 0 Z " fill="#FED74C" transform="translate(391,339)"/>
<path d="M0 0 C39.6 0 79.2 0 120 0 C120 0.66 120 1.32 120 2 C119.24082275 2.43231934 118.48164551 2.86463867 117.69946289 3.31005859 C116.0419222 4.25439402 114.38442641 5.19880925 112.72773743 6.14463806 C109.55172603 7.9578412 106.37285987 9.76563158 103.18798828 11.56323242 C97.59655679 14.72880991 92.05123163 17.89037262 86.70703125 21.46484375 C76.46237271 28.26496656 76.46237271 28.26496656 72.17578125 27.48828125 C69.6875 26.125 69.6875 26.125 67.3984375 24.48046875 C62.96716198 21.74520259 58.0072988 22.19374002 53 23 C50.46943573 24.11751196 48.34923004 25.51375243 46 27 C41.27113305 26.7519825 37.62090621 24.22467603 33.6875 21.8125 C32.19339515 20.91162035 30.69855688 20.01195636 29.203125 19.11328125 C28.38521484 18.62037598 27.56730469 18.1274707 26.72460938 17.61962891 C23.68328594 15.81173109 20.6179896 14.04976574 17.546875 12.29296875 C16.45286377 11.66479248 15.35885254 11.03661621 14.23168945 10.3894043 C12.04824406 9.13707465 9.86190532 7.88977515 7.67260742 6.64770508 C6.67592041 6.0730249 5.6792334 5.49834473 4.65234375 4.90625 C3.75507568 4.39384766 2.85780762 3.88144531 1.93334961 3.35351562 C1.29534424 2.90685547 0.65733887 2.46019531 0 2 C0 1.34 0 0.68 0 0 Z " fill="#FED14E" transform="translate(338,461)"/>
<path d="M0 0 C-1.65412401 4.53124396 -3.89701726 8.61864057 -6.25 12.8125 C-6.68546143 13.59238281 -7.12092285 14.37226563 -7.56958008 15.17578125 C-12.37245415 23.73353842 -17.33793988 32.19617718 -22.296875 40.6640625 C-26.03634868 47.05282467 -29.74064031 53.46150858 -33.4375 59.875 C-34.05173828 60.9386377 -34.66597656 62.00227539 -35.29882812 63.09814453 C-38.24689942 68.20654649 -41.18592396 73.31970466 -44.09886169 78.44821167 C-45.46285707 80.84823458 -46.83157116 83.24554995 -48.20071411 85.64263916 C-49.164418 87.33447819 -50.12123678 89.03023325 -51.07788086 90.72607422 C-51.66448486 91.7523291 -52.25108887 92.77858398 -52.85546875 93.8359375 C-53.36746826 94.73876465 -53.87946777 95.6415918 -54.40698242 96.57177734 C-56 99 -56 99 -60 103 C-60 85.51 -60 68.02 -60 50 C-57.36 48.68 -54.72 47.36 -52 46 C-48.67616057 42.50122165 -46.02482482 39.16453376 -45.96826172 34.23266602 C-45.99678223 33.22905029 -46.02530273 32.22543457 -46.0546875 31.19140625 C-45.78469424 27.43713282 -45.60999082 25.63758353 -42.98144531 22.89013672 C-40.10837337 21.01394166 -37.20224208 19.45579302 -34.125 17.9375 C-31.93724782 16.76739847 -29.74975128 15.59681884 -27.5625 14.42578125 C-26.46292969 13.85682129 -25.36335938 13.28786133 -24.23046875 12.70166016 C-19.43063461 10.17333156 -14.7859157 7.39844122 -10.125 4.625 C-2.30977144 0 -2.30977144 0 0 0 Z " fill="#FED54D" transform="translate(383,334)"/>
<path d="M0 0 C3.96723723 1.47275947 7.52454876 3.34161051 11.19140625 5.44921875 C11.77736069 5.78492386 12.36331512 6.12062897 12.96702576 6.46650696 C14.83394271 7.5371415 16.69822099 8.61228005 18.5625 9.6875 C20.39558396 10.73958778 22.22915998 11.79081326 24.06285095 12.84184265 C25.27076448 13.53682148 26.47680632 14.23506387 27.68092346 14.93659973 C30.60782723 16.64091929 33.54402014 18.30041532 36.54467773 19.87182617 C37.63337158 20.45810791 38.72206543 21.04438965 39.84375 21.6484375 C40.81634766 22.1542334 41.78894531 22.6600293 42.79101562 23.18115234 C45 25 45 25 45.79394531 27.9831543 C45.89224574 30.00617033 45.92104064 32.03341926 45.890625 34.05859375 C46.06143788 38.65224006 47.96880434 41.64547681 51 45 C54.0252368 47.3596847 56.37629687 48.79209896 60 50 C60 67.49 60 84.98 60 103 C56.89241408 99.89241408 55.26934542 98.07798712 53.2578125 94.421875 C52.75652832 93.52106201 52.25524414 92.62024902 51.73876953 91.69213867 C51.20622559 90.72123291 50.67368164 89.75032715 50.125 88.75 C48.95981044 86.65672919 47.79309575 84.56430673 46.625 82.47265625 C46.02558594 81.39773926 45.42617188 80.32282227 44.80859375 79.21533203 C41.97184175 74.17213226 39.05169563 69.17887952 36.125 64.1875 C30.59047041 54.73544306 25.10012524 45.25901349 19.63891602 35.7644043 C16.43096281 30.19287324 13.20430325 24.63328532 9.94140625 19.09375 C9.29042969 17.98644531 8.63945312 16.87914062 7.96875 15.73828125 C6.72115652 13.61890626 5.46999116 11.50162887 4.21484375 9.38671875 C3.66054688 8.44441406 3.10625 7.50210937 2.53515625 6.53125 C1.79857788 5.28698242 1.79857788 5.28698242 1.04711914 4.01757812 C0 2 0 2 0 0 Z " fill="#FED54D" transform="translate(412,334)"/>
</svg>
