<?xml version="1.0" encoding="UTF-8"?>
<svg version="1.1" xmlns="http://www.w3.org/2000/svg" width="180" height="180">
<path d="M0 0 C59.4 0 118.8 0 180 0 C180 59.4 180 118.8 180 180 C120.6 180 61.2 180 0 180 C0 120.6 0 61.2 0 0 Z " fill="#000000" transform="translate(0,0)"/>
<path d="M0 0 C2.33230782 0.74465275 2.33230782 0.74465275 3.33230782 1.74465275 C3.63678494 4.5909158 3.7004958 6.18768591 2.09967804 8.60928154 C1.51752344 9.19462008 0.93536884 9.77995863 0.3355732 10.38303471 C-0.32888817 11.06304035 -0.99334953 11.743046 -1.67794609 12.44365788 C-2.4165789 13.17374058 -3.15521172 13.90382328 -3.91622734 14.6560297 C-4.68687523 15.43704548 -5.45752312 16.21806126 -6.25152397 17.02274418 C-8.80732179 19.60568748 -11.38114541 22.16975605 -13.95675468 24.732934 C-15.73666294 26.51874779 -17.51590032 28.30523045 -19.29449272 30.09235477 C-23.02735036 33.83710671 -26.76916198 37.57259609 -30.51778984 41.30153751 C-34.84930687 45.61069235 -39.16047198 49.93945194 -43.46186411 54.27866107 C-47.60240932 58.45421125 -51.75963042 62.61285306 -55.92386818 66.76478481 C-57.69308194 68.53250931 -59.45769814 70.30484747 -61.21763802 72.08180523 C-63.6785544 74.562637 -66.15778406 77.0235793 -68.64278984 79.48024845 C-69.36927727 80.22045231 -70.09576469 80.96065617 -70.84426689 81.72329044 C-75.87746684 86.64218909 -75.87746684 86.64218909 -80.16924858 87.19867802 C-80.99373497 87.04884968 -81.81822136 86.89902134 -82.66769218 86.74465275 C-83.62035942 84.25293827 -83.62035942 84.25293827 -83.66769218 80.74465275 C-81.67513029 77.63994491 -79.05198929 75.18415413 -76.4250164 72.61208439 C-75.64315468 71.81956272 -74.86129295 71.02704105 -74.05573845 70.21050358 C-71.46182101 67.59083612 -68.84320097 64.99754035 -66.22237968 62.404809 C-64.41579044 60.5960449 -62.61031317 58.78616953 -60.8059063 56.97522831 C-57.01866977 53.18217959 -53.21966697 49.40149267 -49.41085625 45.63015079 C-45.00652532 41.26877238 -40.62592517 36.88460779 -36.25717914 32.48760611 C-32.05445612 28.25885922 -27.83492254 24.04721449 -23.60775948 19.84288692 C-21.81008515 18.05174386 -20.01674287 16.25624234 -18.22777748 14.45640087 C-15.72838413 11.94651434 -13.21059234 9.45671156 -10.68673515 6.97145939 C-9.94573067 6.21988056 -9.20472618 5.46830173 -8.44126701 4.69394779 C-7.75140205 4.02244694 -7.06153709 3.35094608 -6.35076714 2.65909672 C-5.75675543 2.06864598 -5.16274372 1.47819525 -4.55073166 0.86985207 C-2.66769218 -0.25534725 -2.66769218 -0.25534725 0 0 Z " fill="#F5F5F5" transform="translate(123.66769218444824,40.25534725189209)"/>
<path d="M0 0 C0.66 0.66 1.32 1.32 2 2 C1.76285221 6.40203436 0.04824789 8.46367448 -2.98144531 11.53076172 C-3.82612366 12.39450409 -4.670802 13.25824646 -5.54107666 14.14816284 C-6.46080261 15.06606598 -7.38052856 15.98396912 -8.328125 16.9296875 C-9.27922999 17.88856961 -10.22988681 18.84789644 -11.18011475 19.80764771 C-13.17077383 21.81320686 -15.16897717 23.81086823 -17.17236328 25.80371094 C-19.73965867 28.35939191 -22.28344924 30.93713739 -24.82164383 33.52168083 C-26.77748972 35.50696935 -28.74699224 37.47825245 -30.72072601 39.44574356 C-32.12369243 40.85023651 -33.51351619 42.267818 -34.90313721 43.68551636 C-35.76042419 44.53034576 -36.61771118 45.37517517 -37.50097656 46.24560547 C-38.62563324 47.37215042 -38.62563324 47.37215042 -39.77301025 48.52145386 C-42 50 -42 50 -44.71868896 49.79714966 C-47 49 -47 49 -48 48 C-48.42653642 44.80310534 -48.30137967 43.42106404 -46.40119934 40.76628113 C-45.27798531 39.63710014 -45.27798531 39.63710014 -44.13208008 38.48510742 C-42.86494926 37.1943354 -42.86494926 37.1943354 -41.57221985 35.87748718 C-40.64733261 34.9627211 -39.72244537 34.04795502 -38.76953125 33.10546875 C-37.81670579 32.14927414 -36.86462352 31.19233844 -35.91325378 30.23469543 C-33.91789102 28.23196604 -31.91377746 26.23854652 -29.90307617 24.2512207 C-27.32799299 21.7046252 -24.7760112 19.13623832 -22.23016834 16.56045055 C-20.26861213 14.58081568 -18.29528841 12.61325827 -16.31821251 10.64913368 C-14.91289015 9.24876297 -13.51762242 7.83832553 -12.12251282 6.42778015 C-11.26199814 5.58302628 -10.40148346 4.7382724 -9.51489258 3.86791992 C-8.76210526 3.11911057 -8.00931793 2.37030121 -7.23371887 1.59880066 C-4.5596149 -0.31520887 -3.2207325 -0.50417357 0 0 Z " fill="#F3F3F3" transform="translate(134,86)"/>
</svg>
