<?xml version="1.0" standalone="no"?>
<!DOCTYPE svg PUBLIC "-//W3C//DTD SVG 20010904//EN"
 "http://www.w3.org/TR/2001/REC-SVG-20010904/DTD/svg10.dtd">
<svg version="1.0" xmlns="http://www.w3.org/2000/svg"
 width="2048.000000pt" height="2048.000000pt" viewBox="0 0 2048.000000 2048.000000"
 preserveAspectRatio="xMidYMid meet">

<g transform="translate(0.000000,2048.000000) scale(0.100000,-0.100000)"
fill="#000000" stroke="none">
<path d="M1805 20469 c-455 -43 -887 -249 -1216 -578 -338 -338 -534 -757
-579 -1236 -14 -153 -14 -16677 0 -16830 45 -479 241 -898 579 -1236 336 -336
762 -535 1236 -579 158 -14 16678 -14 16835 1 374 34 732 173 1031 400 180
136 381 360 504 564 147 242 247 552 274 845 15 158 15 16678 1 16835 -36 384
-171 732 -402 1038 -80 106 -270 296 -376 376 -303 229 -654 365 -1032 400
-141 13 -16717 13 -16855 0z m15070 -9528 c469 -42 839 -106 1180 -205 115
-33 342 -110 351 -119 2 -2 3 -425 2 -940 l-3 -936 -100 65 c-715 463 -1868
677 -2655 494 -366 -86 -636 -250 -773 -472 -157 -252 -136 -570 52 -819 210
-277 585 -505 1411 -859 400 -171 444 -191 670 -305 582 -292 961 -565 1247
-899 241 -282 413 -628 486 -981 46 -220 52 -292 52 -625 -1 -353 -14 -476
-79 -732 -174 -690 -660 -1239 -1376 -1558 -398 -177 -847 -283 -1470 -347
-249 -25 -1040 -25 -1310 0 -749 71 -1310 205 -1787 428 l-103 48 0 1000 c0
551 4 1001 8 1001 5 0 51 -34 103 -75 716 -571 1667 -878 2558 -826 741 43
1195 293 1308 721 24 93 22 280 -5 381 -87 323 -401 612 -980 899 -191 96
-438 205 -802 357 -713 297 -1138 555 -1503 912 -386 378 -597 779 -688 1312
-30 179 -38 568 -15 769 66 568 284 1023 677 1410 511 504 1309 817 2294 899
72 6 148 13 170 15 81 8 964 -3 1080 -13z m-4995 -1006 l0 -825 -1280 0 -1280
0 0 -3655 0 -3655 -1025 0 -1025 0 0 3655 0 3655 -1275 0 -1275 0 0 825 0 825
3580 0 3580 0 0 -825z"/>
</g>
</svg>
